<mxfile host="app.diagrams.net" modified="2020-11-19T19:47:46.010Z" agent="5.0 (X11)" etag="K9zPciXnhlX2cRVlN3w-" version="13.9.9" type="github">
  <diagram id="7vvKM-h0RmsxbN4j_LpW" name="Page-1">
    <mxGraphModel dx="594" dy="1976" grid="0" gridSize="10" guides="1" tooltips="1" connect="1" arrows="1" fold="1" page="1" pageScale="1" pageWidth="827" pageHeight="1169" background="#FFFFFF" math="0" shadow="0">
      <root>
        <mxCell id="0" />
        <mxCell id="1" parent="0" />
        <mxCell id="TO6H9Lhz3oGzdz73a_7L-95" style="edgeStyle=orthogonalEdgeStyle;rounded=0;orthogonalLoop=1;jettySize=auto;html=1;" parent="1" source="TO6H9Lhz3oGzdz73a_7L-54" target="TO6H9Lhz3oGzdz73a_7L-82" edge="1">
          <mxGeometry relative="1" as="geometry" />
        </mxCell>
        <mxCell id="TO6H9Lhz3oGzdz73a_7L-54" value="COMP.PEDIDOS_CREDITO_CA_MASTER" style="shape=table;startSize=30;container=1;collapsible=1;childLayout=tableLayout;fixedRows=1;rowLines=0;fontStyle=1;align=center;resizeLast=1;fillColor=#ffe6cc;strokeColor=#d79b00;" parent="1" vertex="1" collapsed="1">
          <mxGeometry x="4988" y="251" width="267" height="30" as="geometry">
            <mxRectangle x="2504" y="228" width="210.66" height="1045" as="alternateBounds" />
          </mxGeometry>
        </mxCell>
        <mxCell id="TO6H9Lhz3oGzdz73a_7L-55" value="" style="shape=partialRectangle;collapsible=0;dropTarget=0;pointerEvents=0;fillColor=none;top=0;left=0;bottom=1;right=0;points=[[0,0.5],[1,0.5]];portConstraint=eastwest;" parent="TO6H9Lhz3oGzdz73a_7L-54" vertex="1">
          <mxGeometry y="30" width="210.66" height="30" as="geometry" />
        </mxCell>
        <mxCell id="TO6H9Lhz3oGzdz73a_7L-56" value="PK" style="shape=partialRectangle;connectable=0;fillColor=none;top=0;left=0;bottom=0;right=0;fontStyle=1;overflow=hidden;" parent="TO6H9Lhz3oGzdz73a_7L-55" vertex="1">
          <mxGeometry width="30" height="30" as="geometry" />
        </mxCell>
        <mxCell id="TO6H9Lhz3oGzdz73a_7L-57" value="UniqueID" style="shape=partialRectangle;connectable=0;fillColor=none;top=0;left=0;bottom=0;right=0;align=left;spacingLeft=6;fontStyle=5;overflow=hidden;" parent="TO6H9Lhz3oGzdz73a_7L-55" vertex="1">
          <mxGeometry x="30" width="180.66" height="30" as="geometry" />
        </mxCell>
        <mxCell id="TO6H9Lhz3oGzdz73a_7L-58" value="" style="shape=partialRectangle;collapsible=0;dropTarget=0;pointerEvents=0;fillColor=none;top=0;left=0;bottom=0;right=0;points=[[0,0.5],[1,0.5]];portConstraint=eastwest;" parent="TO6H9Lhz3oGzdz73a_7L-54" vertex="1">
          <mxGeometry y="60" width="210.66" height="935" as="geometry" />
        </mxCell>
        <mxCell id="TO6H9Lhz3oGzdz73a_7L-59" value="" style="shape=partialRectangle;connectable=0;fillColor=none;top=0;left=0;bottom=0;right=0;editable=1;overflow=hidden;" parent="TO6H9Lhz3oGzdz73a_7L-58" vertex="1">
          <mxGeometry width="30" height="935" as="geometry" />
        </mxCell>
        <mxCell id="TO6H9Lhz3oGzdz73a_7L-60" value="FIPAIS&#xa;FICANAL&#xa;FISUCURSAL&#xa;FINOPEDIDO&#xa;FICTEID&#xa;FINOTIENDA&#xa;FIPLAZO&#xa;FDCSALDOCAPITAL&#xa;FDCINTXFINANCIAR&#xa;FIUNIDADNEGOCIO&#xa;FDFECHASURT&#xa;FNIMPORTEABONO&#xa;FIZONAGEO&#xa;FCEMPNUM&#xa;FIPLATAFORMA&#xa;FINOMVTO&#xa;FNMOVPIMP&#xa;FITIPOOP&#xa;FISUCORIG&#xa;FINOPEDANT&#xa;FCEMPNUMSURT&#xa;FCEMPNUMORIGINA&#xa;FCEMPNUMACT&#xa;FINOTIENDAVEND&#xa;FIPAGOPUNTUAL&#xa;FIESSEGURO &#xa;FINOPEDIDOPPSEG &#xa;FITIPOCLIENTE&#xa;SDO_ACTUAL&#xa;MORA_ACTUAL&#xa;SDO_ATRASADO &#xa;SDOTOT_INI&#xa;PERIODOS_CORRIDOS&#xa;SEGMENTOPEDIDO_LIQ&#xa;PEDIDO_SEGURO&#xa;PAISGEO&#xa;CUADRANTEGEO&#xa;ZONAGEO&#xa;FCEMPLEADO_TOP&#xa;BAZ_DIGEMPLEADO&#xa;BAZDIGCANALVEND&#xa;FINOPEDIDOVEND&#xa;EMPLEADOTOPVEND&#xa;FIPAISORIG&#xa;FICANORIG&#xa;EMPLEADOTOPCTO&#xa;COBRO_ACUMULADO_LIQ&#xa;COBRO_SEMANA_LIQ&#xa;SDO_LIQUIDADO_RENOV_LIQ&#xa;PLAZO_LIQ&#xa;TIPO_CLIENTE_LIQ&#xa;PERIODOS_CORRIDOS_LIQ&#xa;SURTIMIENTO_LIQ&#xa;CAP_INI_LIQ&#xa;INT_INI_LIQ&#xa;SDOTOT_INI_LIQ&#xa;FIUNIDADNEGOCIO_LIQ&#xa;ABONONORMAL_LIQ&#xa;SDO_ATRASADO_LIQ&#xa;SEM_ATRASO_LIQ&#xa;SDO_ACTUAL_LIQ&#xa;MORA_ACTUAL_LIQ&#xa;PRIMA_SEGURO&#xa;ATRASO_INI&#xa;EMPLEADO_SURTIO_LIQ" style="shape=partialRectangle;connectable=0;fillColor=none;top=0;left=0;bottom=0;right=0;align=left;spacingLeft=6;overflow=hidden;" parent="TO6H9Lhz3oGzdz73a_7L-58" vertex="1">
          <mxGeometry x="30" width="180.66" height="935" as="geometry" />
        </mxCell>
        <mxCell id="TO6H9Lhz3oGzdz73a_7L-61" value="" style="shape=partialRectangle;collapsible=0;dropTarget=0;pointerEvents=0;fillColor=none;top=0;left=0;bottom=0;right=0;points=[[0,0.5],[1,0.5]];portConstraint=eastwest;" parent="TO6H9Lhz3oGzdz73a_7L-54" vertex="1">
          <mxGeometry y="995" width="210.66" height="30" as="geometry" />
        </mxCell>
        <mxCell id="TO6H9Lhz3oGzdz73a_7L-62" value="" style="shape=partialRectangle;connectable=0;fillColor=none;top=0;left=0;bottom=0;right=0;editable=1;overflow=hidden;" parent="TO6H9Lhz3oGzdz73a_7L-61" vertex="1">
          <mxGeometry width="30" height="30" as="geometry" />
        </mxCell>
        <mxCell id="TO6H9Lhz3oGzdz73a_7L-63" value="" style="shape=partialRectangle;connectable=0;fillColor=none;top=0;left=0;bottom=0;right=0;align=left;spacingLeft=6;overflow=hidden;" parent="TO6H9Lhz3oGzdz73a_7L-61" vertex="1">
          <mxGeometry x="30" width="180.66" height="30" as="geometry" />
        </mxCell>
        <mxCell id="TO6H9Lhz3oGzdz73a_7L-64" value="" style="shape=partialRectangle;collapsible=0;dropTarget=0;pointerEvents=0;fillColor=none;top=0;left=0;bottom=0;right=0;points=[[0,0.5],[1,0.5]];portConstraint=eastwest;" parent="TO6H9Lhz3oGzdz73a_7L-54" vertex="1">
          <mxGeometry y="1025" width="210.66" height="20" as="geometry" />
        </mxCell>
        <mxCell id="TO6H9Lhz3oGzdz73a_7L-65" value="" style="shape=partialRectangle;connectable=0;fillColor=none;top=0;left=0;bottom=0;right=0;editable=1;overflow=hidden;" parent="TO6H9Lhz3oGzdz73a_7L-64" vertex="1">
          <mxGeometry width="30" height="20" as="geometry" />
        </mxCell>
        <mxCell id="TO6H9Lhz3oGzdz73a_7L-66" value="" style="shape=partialRectangle;connectable=0;fillColor=none;top=0;left=0;bottom=0;right=0;align=left;spacingLeft=6;overflow=hidden;" parent="TO6H9Lhz3oGzdz73a_7L-64" vertex="1">
          <mxGeometry x="30" width="180.66" height="20" as="geometry" />
        </mxCell>
        <mxCell id="XvfDKLHzEZaw35lS_-8k-10" value="Mediante workflows, se completara los campos faltantes para insertar los nuevos pedidos a la tabla master." style="text;html=1;strokeColor=none;fillColor=none;align=center;verticalAlign=middle;whiteSpace=wrap;rounded=0;" parent="1" vertex="1">
          <mxGeometry x="4746" y="245" width="180" height="41" as="geometry" />
        </mxCell>
        <mxCell id="XvfDKLHzEZaw35lS_-8k-12" value="Tabla con todo el historico de los pedidos y los nuevos surtimientos." style="text;html=1;strokeColor=none;fillColor=none;align=center;verticalAlign=middle;whiteSpace=wrap;rounded=0;" parent="1" vertex="1">
          <mxGeometry x="5044.5" y="205" width="154" height="44" as="geometry" />
        </mxCell>
        <mxCell id="TO6H9Lhz3oGzdz73a_7L-82" value="COMP.DATASET_BASE" style="shape=table;startSize=30;container=1;collapsible=1;childLayout=tableLayout;fixedRows=1;rowLines=0;fontStyle=1;align=center;resizeLast=1;fillColor=#fff2cc;strokeColor=#d6b656;" parent="1" vertex="1" collapsed="1">
          <mxGeometry x="5424" y="251" width="267" height="30" as="geometry">
            <mxRectangle x="2940" y="228" width="210.66" height="1225.5824661254883" as="alternateBounds" />
          </mxGeometry>
        </mxCell>
        <mxCell id="TO6H9Lhz3oGzdz73a_7L-83" value="" style="shape=partialRectangle;collapsible=0;dropTarget=0;pointerEvents=0;fillColor=none;top=0;left=0;bottom=1;right=0;points=[[0,0.5],[1,0.5]];portConstraint=eastwest;" parent="TO6H9Lhz3oGzdz73a_7L-82" vertex="1">
          <mxGeometry y="30" width="210.66" height="30" as="geometry" />
        </mxCell>
        <mxCell id="TO6H9Lhz3oGzdz73a_7L-84" value="PK" style="shape=partialRectangle;connectable=0;fillColor=none;top=0;left=0;bottom=0;right=0;fontStyle=1;overflow=hidden;" parent="TO6H9Lhz3oGzdz73a_7L-83" vertex="1">
          <mxGeometry width="30" height="30" as="geometry" />
        </mxCell>
        <mxCell id="TO6H9Lhz3oGzdz73a_7L-85" value="UniqueID" style="shape=partialRectangle;connectable=0;fillColor=none;top=0;left=0;bottom=0;right=0;align=left;spacingLeft=6;fontStyle=5;overflow=hidden;" parent="TO6H9Lhz3oGzdz73a_7L-83" vertex="1">
          <mxGeometry x="30" width="180.66" height="30" as="geometry" />
        </mxCell>
        <mxCell id="TO6H9Lhz3oGzdz73a_7L-86" value="" style="shape=partialRectangle;collapsible=0;dropTarget=0;pointerEvents=0;fillColor=none;top=0;left=0;bottom=0;right=0;points=[[0,0.5],[1,0.5]];portConstraint=eastwest;" parent="TO6H9Lhz3oGzdz73a_7L-82" vertex="1">
          <mxGeometry y="60" width="210.66" height="1115" as="geometry" />
        </mxCell>
        <mxCell id="TO6H9Lhz3oGzdz73a_7L-87" value="" style="shape=partialRectangle;connectable=0;fillColor=none;top=0;left=0;bottom=0;right=0;editable=1;overflow=hidden;" parent="TO6H9Lhz3oGzdz73a_7L-86" vertex="1">
          <mxGeometry width="30" height="1115" as="geometry" />
        </mxCell>
        <mxCell id="TO6H9Lhz3oGzdz73a_7L-88" value="﻿FIPAISID&#xa;FICANAL&#xa;FISUCURSAL&#xa;FINOPEDIDO&#xa;SURTIMIENTO&#xa;ABONONORMAL&#xa;PLAZO&#xa;SDO_ACTUAL&#xa;MORA_ACTUAL&#xa;SDO_ATRASADO&#xa;CAP_INI&#xa;INT_INI&#xa;SDOTOT_INI&#xa;FIUNIDADNEGOCIO&#xa;PERIODOS_CORRIDOS&#xa;PAISCU&#xa;CANALCU&#xa;SUCURSALCU&#xa;FOLIO&#xa;TIPO_CLIENTE&#xa;SEM_ATRASO&#xa;FINGCIOID&#xa;FINOTIENDA&#xa;FICTEID&#xa;FIDIGITOVER&#xa;FCEMPNUM&#xa;SEGMENTO&#xa;FIDEPTOID&#xa;ZONACOBZA&#xa;PEDIDO_LIQ&#xa;PEDIDO_SEGURO&#xa;PAISGEO&#xa;CUADRANTEGEO&#xa;ZONAGEO&#xa;FCEMPLEADO_TOP&#xa;COBRO_ACUMULADO&#xa;COBRO_SEMANA&#xa;BAZ_DIGEMPLEADO&#xa;BAZDIG&#xa;FCEMPNUMORIGINA&#xa;CANALVEND&#xa;FINOTIENDAVEND&#xa;FINOPEDIDOVEND&#xa;EMPLEADOTOPVEND&#xa;FIPAISORIG&#xa;FICANORIG&#xa;FISUCORIG&#xa;FINOPEDANT&#xa;EMPLEADOTOPCTO&#xa;COBRO_ACUMULADO_LIQ&#xa;COBRO_SEMANA_LIQ&#xa;SDO_LIQUIDADO_RENOV_LIQ&#xa;PLAZO_LIQ&#xa;TIPO_CLIENTE_LIQ&#xa;PERIODOS_CORRIDOS_LIQ&#xa;SURTIMIENTO_LIQ&#xa;CAP_INI_LIQ&#xa;INT_INI_LIQ&#xa;SDOTOT_INI_LIQ&#xa;FIUNIDADNEGOCIO_LIQ&#xa;ABONONORMAL_LIQ&#xa;SDO_ATRASADO_LIQ&#xa;SEM_ATRASO_LIQ&#xa;SDO_ACTUAL_LIQ&#xa;MORA_ACTUAL_LIQ&#xa;PRIMA_SEGURO&#xa;FIESSEGURO&#xa;ATRASO_INI&#xa;EMPLEADO_SURTIO_LIQ&#xa;PAGO_PUNTUAL&#xa;PAIS_SOL&#xa;CANAL_SOL&#xa;SUCURSAL_SOL&#xa;NUMSOLICITUD&#xa;TIPO_SOL&#xa;FECHA_AUT&#xa;MARCAS&#xa;EMP_SOL&#xa;EMP_AUT" style="shape=partialRectangle;connectable=0;fillColor=none;top=0;left=0;bottom=0;right=0;align=left;spacingLeft=6;overflow=hidden;" parent="TO6H9Lhz3oGzdz73a_7L-86" vertex="1">
          <mxGeometry x="30" width="180.66" height="1115" as="geometry" />
        </mxCell>
        <mxCell id="TO6H9Lhz3oGzdz73a_7L-89" value="" style="shape=partialRectangle;collapsible=0;dropTarget=0;pointerEvents=0;fillColor=none;top=0;left=0;bottom=0;right=0;points=[[0,0.5],[1,0.5]];portConstraint=eastwest;" parent="TO6H9Lhz3oGzdz73a_7L-82" vertex="1">
          <mxGeometry y="1175" width="210.66" height="30" as="geometry" />
        </mxCell>
        <mxCell id="TO6H9Lhz3oGzdz73a_7L-90" value="" style="shape=partialRectangle;connectable=0;fillColor=none;top=0;left=0;bottom=0;right=0;editable=1;overflow=hidden;" parent="TO6H9Lhz3oGzdz73a_7L-89" vertex="1">
          <mxGeometry width="30" height="30" as="geometry" />
        </mxCell>
        <mxCell id="TO6H9Lhz3oGzdz73a_7L-91" value="" style="shape=partialRectangle;connectable=0;fillColor=none;top=0;left=0;bottom=0;right=0;align=left;spacingLeft=6;overflow=hidden;" parent="TO6H9Lhz3oGzdz73a_7L-89" vertex="1">
          <mxGeometry x="30" width="180.66" height="30" as="geometry" />
        </mxCell>
        <mxCell id="TO6H9Lhz3oGzdz73a_7L-92" value="" style="shape=partialRectangle;collapsible=0;dropTarget=0;pointerEvents=0;fillColor=none;top=0;left=0;bottom=0;right=0;points=[[0,0.5],[1,0.5]];portConstraint=eastwest;" parent="TO6H9Lhz3oGzdz73a_7L-82" vertex="1">
          <mxGeometry y="1205" width="210.66" height="20" as="geometry" />
        </mxCell>
        <mxCell id="TO6H9Lhz3oGzdz73a_7L-93" value="" style="shape=partialRectangle;connectable=0;fillColor=none;top=0;left=0;bottom=0;right=0;editable=1;overflow=hidden;" parent="TO6H9Lhz3oGzdz73a_7L-92" vertex="1">
          <mxGeometry width="30" height="20" as="geometry" />
        </mxCell>
        <mxCell id="TO6H9Lhz3oGzdz73a_7L-94" value="" style="shape=partialRectangle;connectable=0;fillColor=none;top=0;left=0;bottom=0;right=0;align=left;spacingLeft=6;overflow=hidden;" parent="TO6H9Lhz3oGzdz73a_7L-92" vertex="1">
          <mxGeometry x="30" width="180.66" height="20" as="geometry" />
        </mxCell>
        <mxCell id="hutU6tRgzpRyq-CcQM-8-56" value="wkf_COMPENSACION_MIGRACION" style="swimlane;" parent="1" vertex="1">
          <mxGeometry x="845" y="-123" width="808" height="288" as="geometry">
            <mxRectangle x="845" y="-123" width="229" height="23" as="alternateBounds" />
          </mxGeometry>
        </mxCell>
        <mxCell id="hutU6tRgzpRyq-CcQM-8-161" value="RCREDITO.PEDIDOS_CREDITO_CA" style="shape=table;startSize=30;container=1;collapsible=1;childLayout=tableLayout;fixedRows=1;rowLines=0;fontStyle=1;align=center;resizeLast=1;fillColor=#d5e8d4;strokeColor=#82b366;" parent="hutU6tRgzpRyq-CcQM-8-56" vertex="1" collapsed="1">
          <mxGeometry x="27" y="114.75" width="222" height="30" as="geometry">
            <mxRectangle x="862" y="204" width="190" height="1200" as="alternateBounds" />
          </mxGeometry>
        </mxCell>
        <mxCell id="hutU6tRgzpRyq-CcQM-8-162" value="" style="shape=partialRectangle;collapsible=0;dropTarget=0;pointerEvents=0;fillColor=none;top=0;left=0;bottom=1;right=0;points=[[0,0.5],[1,0.5]];portConstraint=eastwest;" parent="hutU6tRgzpRyq-CcQM-8-161" vertex="1">
          <mxGeometry y="30" width="190" height="30" as="geometry" />
        </mxCell>
        <mxCell id="hutU6tRgzpRyq-CcQM-8-163" value="PK" style="shape=partialRectangle;connectable=0;fillColor=none;top=0;left=0;bottom=0;right=0;fontStyle=1;overflow=hidden;" parent="hutU6tRgzpRyq-CcQM-8-162" vertex="1">
          <mxGeometry width="30" height="30" as="geometry" />
        </mxCell>
        <mxCell id="hutU6tRgzpRyq-CcQM-8-164" value="UniqueID" style="shape=partialRectangle;connectable=0;fillColor=none;top=0;left=0;bottom=0;right=0;align=left;spacingLeft=6;fontStyle=5;overflow=hidden;" parent="hutU6tRgzpRyq-CcQM-8-162" vertex="1">
          <mxGeometry x="30" width="160" height="30" as="geometry" />
        </mxCell>
        <mxCell id="hutU6tRgzpRyq-CcQM-8-165" value="" style="shape=partialRectangle;collapsible=0;dropTarget=0;pointerEvents=0;fillColor=none;top=0;left=0;bottom=0;right=0;points=[[0,0.5],[1,0.5]];portConstraint=eastwest;" parent="hutU6tRgzpRyq-CcQM-8-161" vertex="1">
          <mxGeometry y="60" width="190" height="1140" as="geometry" />
        </mxCell>
        <mxCell id="hutU6tRgzpRyq-CcQM-8-166" value="" style="shape=partialRectangle;connectable=0;fillColor=none;top=0;left=0;bottom=0;right=0;editable=1;overflow=hidden;" parent="hutU6tRgzpRyq-CcQM-8-165" vertex="1">
          <mxGeometry width="30" height="1140" as="geometry" />
        </mxCell>
        <mxCell id="hutU6tRgzpRyq-CcQM-8-167" value="FIPAISID&#xa;FICANAL&#xa;FISUCURSAL&#xa;FINOPEDIDO&#xa;FINGCIOID&#xa;FINOTIENDA&#xa;FICTEID&#xa;FIDIGITOVER&#xa;FDFECHASURT&#xa;FDINIPER&#xa;FNIMPORTEABONO&#xa;FDULTPAGO&#xa;FNIMPORTEULTPAGO&#xa;FIPLAZO&#xa;FIPERIODO&#xa;FNENGANCHE&#xa;FNSALDO&#xa;FNMORATORIOS&#xa;FNSALDOATRASADO&#xa;FIPERVENCIDOS&#xa;FIPERINACTIVIDAD&#xa;FIPERATRASO&#xa;FIPERATRAACUM&#xa;FICLASIFCUENTA&#xa;FINOGESTIONES&#xa;FIGESTSINCOBRO&#xa;FDULTIMAVISITA&#xa;FIRESULUVISITA&#xa;FINOPAGOS&#xa;FDULTIMOABONO&#xa;FNULTIMOABONO&#xa;FNULTABONOMORA&#xa;FNBONIFICA&#xa;FNIMPPAGARBONIF&#xa;FIPEDSTATUS&#xa;FDFECULTACT&#xa;FIDESPID&#xa;FNSDOANTMORA&#xa;FINOVECESATR&#xa;FIRUTA&#xa;FDCSALDOCAPITAL&#xa;FDCINTXFINANCIAR&#xa;FDCSALDOORIGINAL&#xa;FDCINTTOTXATRASO&#xa;FIPAGOSCAPITAL&#xa;FIPAGOSINTERESES&#xa;FCOBSERVACION&#xa;FIDEPTOID&#xa;FIZONAID&#xa;FCEMPNUM&#xa;FDFECHACANC&#xa;FNCREDVARIOS&#xa;FISEMATRAS&#xa;FITIPODEPTO&#xa;FIUNIDADNEGOCIO&#xa;FNPRECIOD&#xa;FIIDZONACOBZA&#xa;FIIDORIGEN&#xa;FNIMPTOTVENTA&#xa;FIEMISION&#xa;FISERIE&#xa;FIPERACTUAL&#xa;FIPERCORRIDO&#xa;FISTATUSEMISION&#xa;FCFOLIOPARAM&#xa;FITIPOCLIENTE&#xa;FIDIASSERV&#xa;FIDIASGRACIA&#xa;FISTATUSREGIONAL&#xa;FCEMPNUMET&#xa;FNIMPPAGADO&#xa;FNIMPDEVENG&#xa;FNULTIMPMORA&#xa;FCSTATCARTERA&#xa;FCCLASCAR&#xa;FISALDOIDNCALVENC&#xa;FISOLICITUDID&#xa;FIPAISCU&#xa;FICANALCU&#xa;FISUCURSALCU&#xa;FIFOLIO" style="shape=partialRectangle;connectable=0;fillColor=none;top=0;left=0;bottom=0;right=0;align=left;spacingLeft=6;overflow=hidden;" parent="hutU6tRgzpRyq-CcQM-8-165" vertex="1">
          <mxGeometry x="30" width="160" height="1140" as="geometry" />
        </mxCell>
        <mxCell id="hutU6tRgzpRyq-CcQM-8-168" value="COMP.PEDIDOS_CREDITO_CA" style="shape=table;startSize=30;container=1;collapsible=1;childLayout=tableLayout;fixedRows=1;rowLines=0;fontStyle=1;align=center;resizeLast=1;fillColor=#99CCFF;strokeColor=#99CCFF;" parent="hutU6tRgzpRyq-CcQM-8-56" vertex="1" collapsed="1">
          <mxGeometry x="539" y="138.75" width="226" height="30" as="geometry">
            <mxRectangle x="1374" y="228" width="188" height="1225.7565892537436" as="alternateBounds" />
          </mxGeometry>
        </mxCell>
        <mxCell id="hutU6tRgzpRyq-CcQM-8-169" value="" style="shape=partialRectangle;collapsible=0;dropTarget=0;pointerEvents=0;fillColor=none;top=0;left=0;bottom=1;right=0;points=[[0,0.5],[1,0.5]];portConstraint=eastwest;" parent="hutU6tRgzpRyq-CcQM-8-168" vertex="1">
          <mxGeometry y="30" width="188" height="30" as="geometry" />
        </mxCell>
        <mxCell id="hutU6tRgzpRyq-CcQM-8-170" value="PK" style="shape=partialRectangle;connectable=0;fillColor=none;top=0;left=0;bottom=0;right=0;fontStyle=1;overflow=hidden;" parent="hutU6tRgzpRyq-CcQM-8-169" vertex="1">
          <mxGeometry width="30" height="30" as="geometry" />
        </mxCell>
        <mxCell id="hutU6tRgzpRyq-CcQM-8-171" value="UniqueID" style="shape=partialRectangle;connectable=0;fillColor=none;top=0;left=0;bottom=0;right=0;align=left;spacingLeft=6;fontStyle=5;overflow=hidden;" parent="hutU6tRgzpRyq-CcQM-8-169" vertex="1">
          <mxGeometry x="30" width="158" height="30" as="geometry" />
        </mxCell>
        <mxCell id="hutU6tRgzpRyq-CcQM-8-172" value="" style="shape=partialRectangle;collapsible=0;dropTarget=0;pointerEvents=0;fillColor=none;top=0;left=0;bottom=0;right=0;points=[[0,0.5],[1,0.5]];portConstraint=eastwest;" parent="hutU6tRgzpRyq-CcQM-8-168" vertex="1">
          <mxGeometry y="60" width="188" height="1165" as="geometry" />
        </mxCell>
        <mxCell id="hutU6tRgzpRyq-CcQM-8-173" value="" style="shape=partialRectangle;connectable=0;fillColor=none;top=0;left=0;bottom=0;right=0;editable=1;overflow=hidden;" parent="hutU6tRgzpRyq-CcQM-8-172" vertex="1">
          <mxGeometry width="30" height="1165" as="geometry" />
        </mxCell>
        <mxCell id="hutU6tRgzpRyq-CcQM-8-174" value="FIPAISID&#xa;FICANAL&#xa;FISUCURSAL&#xa;FINOPEDIDO&#xa;FINGCIOID&#xa;FINOTIENDA&#xa;FICTEID&#xa;FIDIGITOVER&#xa;FDFECHASURT&#xa;FDINIPER&#xa;FNIMPORTEABONO&#xa;FDULTPAGO&#xa;FNIMPORTEULTPAGO&#xa;FIPLAZO&#xa;FIPERIODO&#xa;FNENGANCHE&#xa;FNSALDO&#xa;FNMORATORIOS&#xa;FNSALDOATRASADO&#xa;FIPERVENCIDOS&#xa;FIPERINACTIVIDAD&#xa;FIPERATRASO&#xa;FIPERATRAACUM&#xa;FICLASIFCUENTA&#xa;FINOGESTIONES&#xa;FIGESTSINCOBRO&#xa;FDULTIMAVISITA&#xa;FIRESULUVISITA&#xa;FINOPAGOS&#xa;FDULTIMOABONO&#xa;FNULTIMOABONO&#xa;FNULTABONOMORA&#xa;FNBONIFICA&#xa;FNIMPPAGARBONIF&#xa;FIPEDSTATUS&#xa;FDFECULTACT&#xa;FIDESPID&#xa;FNSDOANTMORA&#xa;FINOVECESATR&#xa;FIRUTA&#xa;FDCSALDOCAPITAL&#xa;FDCINTXFINANCIAR&#xa;FDCSALDOORIGINAL&#xa;FDCINTTOTXATRASO&#xa;FIPAGOSCAPITAL&#xa;FIPAGOSINTERESES&#xa;FCOBSERVACION&#xa;FIDEPTOID&#xa;FIZONAID&#xa;FCEMPNUM&#xa;FDFECHACANC&#xa;FNCREDVARIOS&#xa;FISEMATRAS&#xa;FITIPODEPTO&#xa;FIUNIDADNEGOCIO&#xa;FNPRECIOD&#xa;FIIDZONACOBZA&#xa;FIIDORIGEN&#xa;FNIMPTOTVENTA&#xa;FIEMISION&#xa;FISERIE&#xa;FIPERACTUAL&#xa;FIPERCORRIDO&#xa;FISTATUSEMISION&#xa;FCFOLIOPARAM&#xa;FITIPOCLIENTE&#xa;FIDIASSERV&#xa;FIDIASGRACIA&#xa;FISTATUSREGIONAL&#xa;FCEMPNUMET&#xa;FNIMPPAGADO&#xa;FNIMPDEVENG&#xa;FNULTIMPMORA&#xa;FCSTATCARTERA&#xa;FCCLASCAR&#xa;FISALDOIDNCALVENC&#xa;FISOLICITUDID&#xa;FIPAISCU&#xa;FICANALCU&#xa;FISUCURSALCU&#xa;FIFOLIO&#xa;FNCOBROSEM&#xa;FNCOBROACUM&#xa;" style="shape=partialRectangle;connectable=0;fillColor=none;top=0;left=0;bottom=0;right=0;align=left;spacingLeft=6;overflow=hidden;" parent="hutU6tRgzpRyq-CcQM-8-172" vertex="1">
          <mxGeometry x="30" width="158" height="1165" as="geometry" />
        </mxCell>
        <mxCell id="hutU6tRgzpRyq-CcQM-8-175" style="edgeStyle=orthogonalEdgeStyle;rounded=0;orthogonalLoop=1;jettySize=auto;html=1;endArrow=none;endFill=0;startArrow=classic;startFill=1;" parent="hutU6tRgzpRyq-CcQM-8-56" source="hutU6tRgzpRyq-CcQM-8-176" edge="1">
          <mxGeometry relative="1" as="geometry">
            <mxPoint x="269" y="153.75" as="targetPoint" />
          </mxGeometry>
        </mxCell>
        <mxCell id="hutU6tRgzpRyq-CcQM-8-176" value="Extracción de los datos, todas las semanas los días lunes." style="text;html=1;strokeColor=none;fillColor=none;align=center;verticalAlign=middle;whiteSpace=wrap;rounded=0;" parent="hutU6tRgzpRyq-CcQM-8-56" vertex="1">
          <mxGeometry x="318" y="100.25" width="160" height="107" as="geometry" />
        </mxCell>
        <mxCell id="hutU6tRgzpRyq-CcQM-8-160" style="edgeStyle=orthogonalEdgeStyle;rounded=0;orthogonalLoop=1;jettySize=auto;html=1;" parent="hutU6tRgzpRyq-CcQM-8-56" source="hutU6tRgzpRyq-CcQM-8-176" target="hutU6tRgzpRyq-CcQM-8-168" edge="1">
          <mxGeometry relative="1" as="geometry" />
        </mxCell>
        <mxCell id="hutU6tRgzpRyq-CcQM-8-177" value="Tabla de pedidos, con dos campos extra, cobro semanal y cobro acumulado." style="text;html=1;strokeColor=none;fillColor=none;align=center;verticalAlign=middle;whiteSpace=wrap;rounded=0;" parent="hutU6tRgzpRyq-CcQM-8-56" vertex="1">
          <mxGeometry x="578.5" y="80.75" width="157" height="56" as="geometry" />
        </mxCell>
        <mxCell id="hutU6tRgzpRyq-CcQM-8-178" style="edgeStyle=orthogonalEdgeStyle;rounded=0;orthogonalLoop=1;jettySize=auto;html=1;entryX=1;entryY=0.5;entryDx=0;entryDy=0;endArrow=none;endFill=0;" parent="hutU6tRgzpRyq-CcQM-8-56" source="hutU6tRgzpRyq-CcQM-8-179" target="hutU6tRgzpRyq-CcQM-8-161" edge="1">
          <mxGeometry relative="1" as="geometry">
            <Array as="points">
              <mxPoint x="269" y="177.75" />
              <mxPoint x="269" y="129.75" />
            </Array>
          </mxGeometry>
        </mxCell>
        <mxCell id="hutU6tRgzpRyq-CcQM-8-179" value="RCREDITO.MOVIMIENTO_PEDIDO" style="shape=table;startSize=30;container=1;collapsible=1;childLayout=tableLayout;fixedRows=1;rowLines=0;fontStyle=1;align=center;resizeLast=1;fillColor=#d5e8d4;strokeColor=#82b366;" parent="hutU6tRgzpRyq-CcQM-8-56" vertex="1" collapsed="1">
          <mxGeometry x="27" y="162.75" width="222" height="30" as="geometry">
            <mxRectangle x="862" y="252" width="190" height="253" as="alternateBounds" />
          </mxGeometry>
        </mxCell>
        <mxCell id="hutU6tRgzpRyq-CcQM-8-180" value="" style="shape=partialRectangle;collapsible=0;dropTarget=0;pointerEvents=0;fillColor=none;top=0;left=0;bottom=1;right=0;points=[[0,0.5],[1,0.5]];portConstraint=eastwest;" parent="hutU6tRgzpRyq-CcQM-8-179" vertex="1">
          <mxGeometry y="30" width="190" height="30" as="geometry" />
        </mxCell>
        <mxCell id="hutU6tRgzpRyq-CcQM-8-181" value="PK" style="shape=partialRectangle;connectable=0;fillColor=none;top=0;left=0;bottom=0;right=0;fontStyle=1;overflow=hidden;" parent="hutU6tRgzpRyq-CcQM-8-180" vertex="1">
          <mxGeometry width="30" height="30" as="geometry" />
        </mxCell>
        <mxCell id="hutU6tRgzpRyq-CcQM-8-182" value="UniqueID" style="shape=partialRectangle;connectable=0;fillColor=none;top=0;left=0;bottom=0;right=0;align=left;spacingLeft=6;fontStyle=5;overflow=hidden;" parent="hutU6tRgzpRyq-CcQM-8-180" vertex="1">
          <mxGeometry x="30" width="160" height="30" as="geometry" />
        </mxCell>
        <mxCell id="hutU6tRgzpRyq-CcQM-8-183" value="" style="shape=partialRectangle;collapsible=0;dropTarget=0;pointerEvents=0;fillColor=none;top=0;left=0;bottom=0;right=0;points=[[0,0.5],[1,0.5]];portConstraint=eastwest;" parent="hutU6tRgzpRyq-CcQM-8-179" vertex="1">
          <mxGeometry y="60" width="190" height="193" as="geometry" />
        </mxCell>
        <mxCell id="hutU6tRgzpRyq-CcQM-8-184" value="" style="shape=partialRectangle;connectable=0;fillColor=none;top=0;left=0;bottom=0;right=0;editable=1;overflow=hidden;" parent="hutU6tRgzpRyq-CcQM-8-183" vertex="1">
          <mxGeometry width="30" height="193" as="geometry" />
        </mxCell>
        <mxCell id="hutU6tRgzpRyq-CcQM-8-185" value="FIPAISID&#xa;FICANAL&#xa;FISUCURSAL&#xa;FINOPEDIDO&#xa;FINOMOVTO&#xa;FINOTRANSAC&#xa;FITIPOOP&#xa;FDFECMOVTOPED&#xa;FIMOVPCARABO&#xa;FNMOVPIMP&#xa;FCUSERID&#xa;FCWS&#xa;FICONCEPMOV" style="shape=partialRectangle;connectable=0;fillColor=none;top=0;left=0;bottom=0;right=0;align=left;spacingLeft=6;overflow=hidden;" parent="hutU6tRgzpRyq-CcQM-8-183" vertex="1">
          <mxGeometry x="30" width="160" height="193" as="geometry" />
        </mxCell>
        <mxCell id="hutU6tRgzpRyq-CcQM-8-186" value="sp_SURTIDOS_SEMANA_VENCIDA" style="swimlane;" parent="1" vertex="1">
          <mxGeometry x="1736" y="-123" width="871" height="288" as="geometry">
            <mxRectangle x="845" y="-123" width="229" height="23" as="alternateBounds" />
          </mxGeometry>
        </mxCell>
        <mxCell id="hutU6tRgzpRyq-CcQM-8-272" value="COMP.PEDIDOS_CREDITO_CA" style="shape=table;startSize=30;container=1;collapsible=1;childLayout=tableLayout;fixedRows=1;rowLines=0;fontStyle=1;align=center;resizeLast=1;fillColor=#99CCFF;strokeColor=#99CCFF;" parent="hutU6tRgzpRyq-CcQM-8-186" vertex="1" collapsed="1">
          <mxGeometry x="31.5" y="138.75" width="226" height="30" as="geometry">
            <mxRectangle x="1374" y="228" width="188" height="1225.7565892537436" as="alternateBounds" />
          </mxGeometry>
        </mxCell>
        <mxCell id="hutU6tRgzpRyq-CcQM-8-273" value="" style="shape=partialRectangle;collapsible=0;dropTarget=0;pointerEvents=0;fillColor=none;top=0;left=0;bottom=1;right=0;points=[[0,0.5],[1,0.5]];portConstraint=eastwest;" parent="hutU6tRgzpRyq-CcQM-8-272" vertex="1">
          <mxGeometry y="30" width="188" height="30" as="geometry" />
        </mxCell>
        <mxCell id="hutU6tRgzpRyq-CcQM-8-274" value="PK" style="shape=partialRectangle;connectable=0;fillColor=none;top=0;left=0;bottom=0;right=0;fontStyle=1;overflow=hidden;" parent="hutU6tRgzpRyq-CcQM-8-273" vertex="1">
          <mxGeometry width="30" height="30" as="geometry" />
        </mxCell>
        <mxCell id="hutU6tRgzpRyq-CcQM-8-275" value="UniqueID" style="shape=partialRectangle;connectable=0;fillColor=none;top=0;left=0;bottom=0;right=0;align=left;spacingLeft=6;fontStyle=5;overflow=hidden;" parent="hutU6tRgzpRyq-CcQM-8-273" vertex="1">
          <mxGeometry x="30" width="158" height="30" as="geometry" />
        </mxCell>
        <mxCell id="hutU6tRgzpRyq-CcQM-8-276" value="" style="shape=partialRectangle;collapsible=0;dropTarget=0;pointerEvents=0;fillColor=none;top=0;left=0;bottom=0;right=0;points=[[0,0.5],[1,0.5]];portConstraint=eastwest;" parent="hutU6tRgzpRyq-CcQM-8-272" vertex="1">
          <mxGeometry y="60" width="188" height="1165" as="geometry" />
        </mxCell>
        <mxCell id="hutU6tRgzpRyq-CcQM-8-277" value="" style="shape=partialRectangle;connectable=0;fillColor=none;top=0;left=0;bottom=0;right=0;editable=1;overflow=hidden;" parent="hutU6tRgzpRyq-CcQM-8-276" vertex="1">
          <mxGeometry width="30" height="1165" as="geometry" />
        </mxCell>
        <mxCell id="hutU6tRgzpRyq-CcQM-8-278" value="FIPAISID&#xa;FICANAL&#xa;FISUCURSAL&#xa;FINOPEDIDO&#xa;FINGCIOID&#xa;FINOTIENDA&#xa;FICTEID&#xa;FIDIGITOVER&#xa;FDFECHASURT&#xa;FDINIPER&#xa;FNIMPORTEABONO&#xa;FDULTPAGO&#xa;FNIMPORTEULTPAGO&#xa;FIPLAZO&#xa;FIPERIODO&#xa;FNENGANCHE&#xa;FNSALDO&#xa;FNMORATORIOS&#xa;FNSALDOATRASADO&#xa;FIPERVENCIDOS&#xa;FIPERINACTIVIDAD&#xa;FIPERATRASO&#xa;FIPERATRAACUM&#xa;FICLASIFCUENTA&#xa;FINOGESTIONES&#xa;FIGESTSINCOBRO&#xa;FDULTIMAVISITA&#xa;FIRESULUVISITA&#xa;FINOPAGOS&#xa;FDULTIMOABONO&#xa;FNULTIMOABONO&#xa;FNULTABONOMORA&#xa;FNBONIFICA&#xa;FNIMPPAGARBONIF&#xa;FIPEDSTATUS&#xa;FDFECULTACT&#xa;FIDESPID&#xa;FNSDOANTMORA&#xa;FINOVECESATR&#xa;FIRUTA&#xa;FDCSALDOCAPITAL&#xa;FDCINTXFINANCIAR&#xa;FDCSALDOORIGINAL&#xa;FDCINTTOTXATRASO&#xa;FIPAGOSCAPITAL&#xa;FIPAGOSINTERESES&#xa;FCOBSERVACION&#xa;FIDEPTOID&#xa;FIZONAID&#xa;FCEMPNUM&#xa;FDFECHACANC&#xa;FNCREDVARIOS&#xa;FISEMATRAS&#xa;FITIPODEPTO&#xa;FIUNIDADNEGOCIO&#xa;FNPRECIOD&#xa;FIIDZONACOBZA&#xa;FIIDORIGEN&#xa;FNIMPTOTVENTA&#xa;FIEMISION&#xa;FISERIE&#xa;FIPERACTUAL&#xa;FIPERCORRIDO&#xa;FISTATUSEMISION&#xa;FCFOLIOPARAM&#xa;FITIPOCLIENTE&#xa;FIDIASSERV&#xa;FIDIASGRACIA&#xa;FISTATUSREGIONAL&#xa;FCEMPNUMET&#xa;FNIMPPAGADO&#xa;FNIMPDEVENG&#xa;FNULTIMPMORA&#xa;FCSTATCARTERA&#xa;FCCLASCAR&#xa;FISALDOIDNCALVENC&#xa;FISOLICITUDID&#xa;FIPAISCU&#xa;FICANALCU&#xa;FISUCURSALCU&#xa;FIFOLIO&#xa;FNCOBROSEM&#xa;FNCOBROACUM&#xa;" style="shape=partialRectangle;connectable=0;fillColor=none;top=0;left=0;bottom=0;right=0;align=left;spacingLeft=6;overflow=hidden;" parent="hutU6tRgzpRyq-CcQM-8-276" vertex="1">
          <mxGeometry x="30" width="158" height="1165" as="geometry" />
        </mxCell>
        <mxCell id="hutU6tRgzpRyq-CcQM-8-279" value="Tabla de pedidos, con dos campos extra, cobro semanal y cobro acumulado." style="text;html=1;strokeColor=none;fillColor=none;align=center;verticalAlign=middle;whiteSpace=wrap;rounded=0;" parent="hutU6tRgzpRyq-CcQM-8-186" vertex="1">
          <mxGeometry x="71" y="80.75" width="157" height="56" as="geometry" />
        </mxCell>
        <mxCell id="hutU6tRgzpRyq-CcQM-8-280" value="COMP.PEDIDOS_CREDITO_CA_SURTIDOS" style="shape=table;startSize=30;container=1;collapsible=1;childLayout=tableLayout;fixedRows=1;rowLines=0;fontStyle=1;align=center;resizeLast=1;strokeColor=#E1D5E7;fillColor=#E1D5E7;" parent="hutU6tRgzpRyq-CcQM-8-186" vertex="1" collapsed="1">
          <mxGeometry x="572.5" y="138.75" width="267" height="30" as="geometry">
            <mxRectangle x="572.5" y="138.75" width="210.66" height="245.03309885660804" as="alternateBounds" />
          </mxGeometry>
        </mxCell>
        <mxCell id="hutU6tRgzpRyq-CcQM-8-281" value="" style="shape=partialRectangle;collapsible=0;dropTarget=0;pointerEvents=0;fillColor=none;top=0;left=0;bottom=1;right=0;points=[[0,0.5],[1,0.5]];portConstraint=eastwest;" parent="hutU6tRgzpRyq-CcQM-8-280" vertex="1">
          <mxGeometry y="30" width="210.66" height="30" as="geometry" />
        </mxCell>
        <mxCell id="hutU6tRgzpRyq-CcQM-8-282" value="PK" style="shape=partialRectangle;connectable=0;fillColor=none;top=0;left=0;bottom=0;right=0;fontStyle=1;overflow=hidden;" parent="hutU6tRgzpRyq-CcQM-8-281" vertex="1">
          <mxGeometry width="30" height="30" as="geometry" />
        </mxCell>
        <mxCell id="hutU6tRgzpRyq-CcQM-8-283" value="UniqueID" style="shape=partialRectangle;connectable=0;fillColor=none;top=0;left=0;bottom=0;right=0;align=left;spacingLeft=6;fontStyle=5;overflow=hidden;" parent="hutU6tRgzpRyq-CcQM-8-281" vertex="1">
          <mxGeometry x="30" width="180.66" height="30" as="geometry" />
        </mxCell>
        <mxCell id="hutU6tRgzpRyq-CcQM-8-284" value="" style="shape=partialRectangle;collapsible=0;dropTarget=0;pointerEvents=0;fillColor=none;top=0;left=0;bottom=0;right=0;points=[[0,0.5],[1,0.5]];portConstraint=eastwest;" parent="hutU6tRgzpRyq-CcQM-8-280" vertex="1">
          <mxGeometry y="60" width="210.66" height="185" as="geometry" />
        </mxCell>
        <mxCell id="hutU6tRgzpRyq-CcQM-8-285" value="" style="shape=partialRectangle;connectable=0;fillColor=none;top=0;left=0;bottom=0;right=0;editable=1;overflow=hidden;" parent="hutU6tRgzpRyq-CcQM-8-284" vertex="1">
          <mxGeometry width="30" height="185" as="geometry" />
        </mxCell>
        <mxCell id="hutU6tRgzpRyq-CcQM-8-286" value="FIPAISID&#xa;FICANAL&#xa;FISUCURSAL&#xa;FINOPEDIDO&#xa;FICTECU&#xa;FIPAISCU&#xa;CANALCU&#xa;FOLIOCU&#xa;SUCURSALCU&#xa;FINGCIOID&#xa;FICTEID&#xa;FINOTIENDA&#xa;FIDIGITOVER&#xa;FDFECHASURT&#xa;" style="shape=partialRectangle;connectable=0;fillColor=none;top=0;left=0;bottom=0;right=0;align=left;spacingLeft=6;overflow=hidden;" parent="hutU6tRgzpRyq-CcQM-8-284" vertex="1">
          <mxGeometry x="30" width="180.66" height="185" as="geometry" />
        </mxCell>
        <mxCell id="hutU6tRgzpRyq-CcQM-8-293" value="Mediante un Store Procedure se inserta solo la información de los pedidos surtidos a semana vencida." style="text;html=1;strokeColor=none;fillColor=none;align=center;verticalAlign=middle;whiteSpace=wrap;rounded=0;" parent="hutU6tRgzpRyq-CcQM-8-186" vertex="1">
          <mxGeometry x="333.5" y="128.25" width="163" height="51" as="geometry" />
        </mxCell>
        <mxCell id="hutU6tRgzpRyq-CcQM-8-271" style="edgeStyle=orthogonalEdgeStyle;rounded=0;orthogonalLoop=1;jettySize=auto;html=1;" parent="hutU6tRgzpRyq-CcQM-8-186" source="hutU6tRgzpRyq-CcQM-8-293" target="hutU6tRgzpRyq-CcQM-8-280" edge="1">
          <mxGeometry relative="1" as="geometry" />
        </mxCell>
        <mxCell id="hutU6tRgzpRyq-CcQM-8-294" style="edgeStyle=orthogonalEdgeStyle;rounded=0;orthogonalLoop=1;jettySize=auto;html=1;" parent="hutU6tRgzpRyq-CcQM-8-186" source="hutU6tRgzpRyq-CcQM-8-272" target="hutU6tRgzpRyq-CcQM-8-293" edge="1">
          <mxGeometry relative="1" as="geometry">
            <mxPoint x="262.5" y="153.75" as="sourcePoint" />
            <mxPoint x="572.5" y="153.75" as="targetPoint" />
          </mxGeometry>
        </mxCell>
        <mxCell id="hutU6tRgzpRyq-CcQM-8-295" value="Tabla con las primary key de pedidos a semana vencida " style="text;html=1;strokeColor=none;fillColor=none;align=center;verticalAlign=middle;whiteSpace=wrap;rounded=0;" parent="hutU6tRgzpRyq-CcQM-8-186" vertex="1">
          <mxGeometry x="627.5" y="84.75" width="157" height="56" as="geometry" />
        </mxCell>
        <mxCell id="hutU6tRgzpRyq-CcQM-8-296" value="wkf_BUSCA_TASRTIMIENTOPED" style="swimlane;" parent="1" vertex="1">
          <mxGeometry x="1736" y="205" width="871" height="286" as="geometry">
            <mxRectangle x="845" y="-123" width="229" height="23" as="alternateBounds" />
          </mxGeometry>
        </mxCell>
        <mxCell id="hutU6tRgzpRyq-CcQM-8-322" value="RCREDITO.TASRTIMIENTOPED" style="shape=table;startSize=30;container=1;collapsible=1;childLayout=tableLayout;fixedRows=1;rowLines=0;fontStyle=1;align=center;resizeLast=1;fillColor=#f8cecc;strokeColor=#b85450;" parent="hutU6tRgzpRyq-CcQM-8-296" vertex="1" collapsed="1">
          <mxGeometry x="41.75" y="164" width="226" height="30" as="geometry">
            <mxRectangle x="41.75" y="164" width="188" height="256" as="alternateBounds" />
          </mxGeometry>
        </mxCell>
        <mxCell id="hutU6tRgzpRyq-CcQM-8-323" value="" style="shape=partialRectangle;collapsible=0;dropTarget=0;pointerEvents=0;fillColor=none;top=0;left=0;bottom=1;right=0;points=[[0,0.5],[1,0.5]];portConstraint=eastwest;" parent="hutU6tRgzpRyq-CcQM-8-322" vertex="1">
          <mxGeometry y="30" width="188" height="30" as="geometry" />
        </mxCell>
        <mxCell id="hutU6tRgzpRyq-CcQM-8-324" value="PK" style="shape=partialRectangle;connectable=0;fillColor=none;top=0;left=0;bottom=0;right=0;fontStyle=1;overflow=hidden;" parent="hutU6tRgzpRyq-CcQM-8-323" vertex="1">
          <mxGeometry width="30" height="30" as="geometry" />
        </mxCell>
        <mxCell id="hutU6tRgzpRyq-CcQM-8-325" value="UniqueID" style="shape=partialRectangle;connectable=0;fillColor=none;top=0;left=0;bottom=0;right=0;align=left;spacingLeft=6;fontStyle=5;overflow=hidden;" parent="hutU6tRgzpRyq-CcQM-8-323" vertex="1">
          <mxGeometry x="30" width="158" height="30" as="geometry" />
        </mxCell>
        <mxCell id="hutU6tRgzpRyq-CcQM-8-326" value="" style="shape=partialRectangle;collapsible=0;dropTarget=0;pointerEvents=0;fillColor=none;top=0;left=0;bottom=0;right=0;points=[[0,0.5],[1,0.5]];portConstraint=eastwest;" parent="hutU6tRgzpRyq-CcQM-8-322" vertex="1">
          <mxGeometry y="60" width="188" height="196" as="geometry" />
        </mxCell>
        <mxCell id="hutU6tRgzpRyq-CcQM-8-327" value="" style="shape=partialRectangle;connectable=0;fillColor=none;top=0;left=0;bottom=0;right=0;editable=1;overflow=hidden;" parent="hutU6tRgzpRyq-CcQM-8-326" vertex="1">
          <mxGeometry width="30" height="196" as="geometry" />
        </mxCell>
        <mxCell id="hutU6tRgzpRyq-CcQM-8-328" value="FIPAISID&#xa;FICANAL&#xa;FISUCURSAL&#xa;FINOPEDIDO&#xa;FCEMPNUMSURT&#xa;FDFECHASURT&#xa;FCEMPNUMORIGINA&#xa;FDFECHAORIGINA&#xa;FIANIOSURT&#xa;FISEMSURT&#xa;FIMARCA&#xa;FDFECHAACTUALIZA&#xa;FCEMPNUMACT" style="shape=partialRectangle;connectable=0;fillColor=none;top=0;left=0;bottom=0;right=0;align=left;spacingLeft=6;overflow=hidden;" parent="hutU6tRgzpRyq-CcQM-8-326" vertex="1">
          <mxGeometry x="30" width="158" height="196" as="geometry" />
        </mxCell>
        <mxCell id="hutU6tRgzpRyq-CcQM-8-329" value="COMP.TASRTIMIENTOPED" style="shape=table;startSize=30;container=1;collapsible=1;childLayout=tableLayout;fixedRows=1;rowLines=0;fontStyle=1;align=center;resizeLast=1;fillColor=#f5f5f5;strokeColor=#666666;fontColor=#333333;" parent="hutU6tRgzpRyq-CcQM-8-296" vertex="1" collapsed="1">
          <mxGeometry x="603.25" y="135" width="226" height="30" as="geometry">
            <mxRectangle x="603.25" y="135" width="188" height="140" as="alternateBounds" />
          </mxGeometry>
        </mxCell>
        <mxCell id="hutU6tRgzpRyq-CcQM-8-330" value="" style="shape=partialRectangle;collapsible=0;dropTarget=0;pointerEvents=0;fillColor=none;top=0;left=0;bottom=1;right=0;points=[[0,0.5],[1,0.5]];portConstraint=eastwest;" parent="hutU6tRgzpRyq-CcQM-8-329" vertex="1">
          <mxGeometry y="30" width="188" height="30" as="geometry" />
        </mxCell>
        <mxCell id="hutU6tRgzpRyq-CcQM-8-331" value="PK" style="shape=partialRectangle;connectable=0;fillColor=none;top=0;left=0;bottom=0;right=0;fontStyle=1;overflow=hidden;" parent="hutU6tRgzpRyq-CcQM-8-330" vertex="1">
          <mxGeometry width="30" height="30" as="geometry" />
        </mxCell>
        <mxCell id="hutU6tRgzpRyq-CcQM-8-332" value="UniqueID" style="shape=partialRectangle;connectable=0;fillColor=none;top=0;left=0;bottom=0;right=0;align=left;spacingLeft=6;fontStyle=5;overflow=hidden;" parent="hutU6tRgzpRyq-CcQM-8-330" vertex="1">
          <mxGeometry x="30" width="158" height="30" as="geometry" />
        </mxCell>
        <mxCell id="hutU6tRgzpRyq-CcQM-8-333" value="" style="shape=partialRectangle;collapsible=0;dropTarget=0;pointerEvents=0;fillColor=none;top=0;left=0;bottom=0;right=0;points=[[0,0.5],[1,0.5]];portConstraint=eastwest;" parent="hutU6tRgzpRyq-CcQM-8-329" vertex="1">
          <mxGeometry y="60" width="188" height="80" as="geometry" />
        </mxCell>
        <mxCell id="hutU6tRgzpRyq-CcQM-8-334" value="" style="shape=partialRectangle;connectable=0;fillColor=none;top=0;left=0;bottom=0;right=0;editable=1;overflow=hidden;" parent="hutU6tRgzpRyq-CcQM-8-333" vertex="1">
          <mxGeometry width="30" height="80" as="geometry" />
        </mxCell>
        <mxCell id="hutU6tRgzpRyq-CcQM-8-335" value="FIPAISID&#xa;FICANAL&#xa;FISUCURSAL&#xa;FINOPEDIDO&#xa;FCEMPNUMORIGINA" style="shape=partialRectangle;connectable=0;fillColor=none;top=0;left=0;bottom=0;right=0;align=left;spacingLeft=6;overflow=hidden;" parent="hutU6tRgzpRyq-CcQM-8-333" vertex="1">
          <mxGeometry x="30" width="158" height="80" as="geometry" />
        </mxCell>
        <mxCell id="hutU6tRgzpRyq-CcQM-8-336" style="edgeStyle=orthogonalEdgeStyle;rounded=0;orthogonalLoop=1;jettySize=auto;html=1;entryX=1;entryY=0.5;entryDx=0;entryDy=0;startArrow=none;startFill=0;endArrow=none;endFill=0;" parent="hutU6tRgzpRyq-CcQM-8-296" source="hutU6tRgzpRyq-CcQM-8-337" target="hutU6tRgzpRyq-CcQM-8-322" edge="1">
          <mxGeometry relative="1" as="geometry">
            <Array as="points">
              <mxPoint x="287.75" y="121" />
              <mxPoint x="287.75" y="179" />
            </Array>
          </mxGeometry>
        </mxCell>
        <mxCell id="hutU6tRgzpRyq-CcQM-8-337" value="COMP.PEDIDOS_CREDITO_CA" style="shape=table;startSize=30;container=1;collapsible=1;childLayout=tableLayout;fixedRows=1;rowLines=0;fontStyle=1;align=center;resizeLast=1;fillColor=#99CCFF;strokeColor=#99CCFF;" parent="hutU6tRgzpRyq-CcQM-8-296" vertex="1" collapsed="1">
          <mxGeometry x="41.75" y="106" width="226" height="30" as="geometry">
            <mxRectangle x="41.75" y="106" width="188" height="1276" as="alternateBounds" />
          </mxGeometry>
        </mxCell>
        <mxCell id="hutU6tRgzpRyq-CcQM-8-338" value="" style="shape=partialRectangle;collapsible=0;dropTarget=0;pointerEvents=0;fillColor=none;top=0;left=0;bottom=1;right=0;points=[[0,0.5],[1,0.5]];portConstraint=eastwest;" parent="hutU6tRgzpRyq-CcQM-8-337" vertex="1">
          <mxGeometry y="30" width="188" height="30" as="geometry" />
        </mxCell>
        <mxCell id="hutU6tRgzpRyq-CcQM-8-339" value="PK" style="shape=partialRectangle;connectable=0;fillColor=none;top=0;left=0;bottom=0;right=0;fontStyle=1;overflow=hidden;" parent="hutU6tRgzpRyq-CcQM-8-338" vertex="1">
          <mxGeometry width="30" height="30" as="geometry" />
        </mxCell>
        <mxCell id="hutU6tRgzpRyq-CcQM-8-340" value="UniqueID" style="shape=partialRectangle;connectable=0;fillColor=none;top=0;left=0;bottom=0;right=0;align=left;spacingLeft=6;fontStyle=5;overflow=hidden;" parent="hutU6tRgzpRyq-CcQM-8-338" vertex="1">
          <mxGeometry x="30" width="158" height="30" as="geometry" />
        </mxCell>
        <mxCell id="hutU6tRgzpRyq-CcQM-8-341" value="" style="shape=partialRectangle;collapsible=0;dropTarget=0;pointerEvents=0;fillColor=none;top=0;left=0;bottom=0;right=0;points=[[0,0.5],[1,0.5]];portConstraint=eastwest;" parent="hutU6tRgzpRyq-CcQM-8-337" vertex="1">
          <mxGeometry y="60" width="188" height="1165" as="geometry" />
        </mxCell>
        <mxCell id="hutU6tRgzpRyq-CcQM-8-342" value="" style="shape=partialRectangle;connectable=0;fillColor=none;top=0;left=0;bottom=0;right=0;editable=1;overflow=hidden;" parent="hutU6tRgzpRyq-CcQM-8-341" vertex="1">
          <mxGeometry width="30" height="1165" as="geometry" />
        </mxCell>
        <mxCell id="hutU6tRgzpRyq-CcQM-8-343" value="FIPAISID&#xa;FICANAL&#xa;FISUCURSAL&#xa;FINOPEDIDO&#xa;FINGCIOID&#xa;FINOTIENDA&#xa;FICTEID&#xa;FIDIGITOVER&#xa;FDFECHASURT&#xa;FDINIPER&#xa;FNIMPORTEABONO&#xa;FDULTPAGO&#xa;FNIMPORTEULTPAGO&#xa;FIPLAZO&#xa;FIPERIODO&#xa;FNENGANCHE&#xa;FNSALDO&#xa;FNMORATORIOS&#xa;FNSALDOATRASADO&#xa;FIPERVENCIDOS&#xa;FIPERINACTIVIDAD&#xa;FIPERATRASO&#xa;FIPERATRAACUM&#xa;FICLASIFCUENTA&#xa;FINOGESTIONES&#xa;FIGESTSINCOBRO&#xa;FDULTIMAVISITA&#xa;FIRESULUVISITA&#xa;FINOPAGOS&#xa;FDULTIMOABONO&#xa;FNULTIMOABONO&#xa;FNULTABONOMORA&#xa;FNBONIFICA&#xa;FNIMPPAGARBONIF&#xa;FIPEDSTATUS&#xa;FDFECULTACT&#xa;FIDESPID&#xa;FNSDOANTMORA&#xa;FINOVECESATR&#xa;FIRUTA&#xa;FDCSALDOCAPITAL&#xa;FDCINTXFINANCIAR&#xa;FDCSALDOORIGINAL&#xa;FDCINTTOTXATRASO&#xa;FIPAGOSCAPITAL&#xa;FIPAGOSINTERESES&#xa;FCOBSERVACION&#xa;FIDEPTOID&#xa;FIZONAID&#xa;FCEMPNUM&#xa;FDFECHACANC&#xa;FNCREDVARIOS&#xa;FISEMATRAS&#xa;FITIPODEPTO&#xa;FIUNIDADNEGOCIO&#xa;FNPRECIOD&#xa;FIIDZONACOBZA&#xa;FIIDORIGEN&#xa;FNIMPTOTVENTA&#xa;FIEMISION&#xa;FISERIE&#xa;FIPERACTUAL&#xa;FIPERCORRIDO&#xa;FISTATUSEMISION&#xa;FCFOLIOPARAM&#xa;FITIPOCLIENTE&#xa;FIDIASSERV&#xa;FIDIASGRACIA&#xa;FISTATUSREGIONAL&#xa;FCEMPNUMET&#xa;FNIMPPAGADO&#xa;FNIMPDEVENG&#xa;FNULTIMPMORA&#xa;FCSTATCARTERA&#xa;FCCLASCAR&#xa;FISALDOIDNCALVENC&#xa;FISOLICITUDID&#xa;FIPAISCU&#xa;FICANALCU&#xa;FISUCURSALCU&#xa;FIFOLIO&#xa;FNCOBROSEM&#xa;FNCOBROACUM&#xa;" style="shape=partialRectangle;connectable=0;fillColor=none;top=0;left=0;bottom=0;right=0;align=left;spacingLeft=6;overflow=hidden;" parent="hutU6tRgzpRyq-CcQM-8-341" vertex="1">
          <mxGeometry x="30" width="158" height="1165" as="geometry" />
        </mxCell>
        <mxCell id="hutU6tRgzpRyq-CcQM-8-344" value="Se realiza una búsqueda del empleado que origino el pedido en la tabla TASRTIMIENTOPED " style="text;html=1;strokeColor=none;fillColor=none;align=center;verticalAlign=middle;whiteSpace=wrap;rounded=0;" parent="hutU6tRgzpRyq-CcQM-8-337" vertex="1">
          <mxGeometry y="1225" width="188" height="51" as="geometry" />
        </mxCell>
        <mxCell id="hutU6tRgzpRyq-CcQM-8-345" value="" style="edgeStyle=orthogonalEdgeStyle;rounded=0;orthogonalLoop=1;jettySize=auto;html=1;startArrow=classic;startFill=1;endArrow=none;endFill=0;" parent="hutU6tRgzpRyq-CcQM-8-296" source="hutU6tRgzpRyq-CcQM-8-347" edge="1">
          <mxGeometry relative="1" as="geometry">
            <mxPoint x="287.75" y="150" as="targetPoint" />
          </mxGeometry>
        </mxCell>
        <mxCell id="hutU6tRgzpRyq-CcQM-8-346" style="edgeStyle=orthogonalEdgeStyle;rounded=0;orthogonalLoop=1;jettySize=auto;html=1;entryX=0;entryY=0.5;entryDx=0;entryDy=0;startArrow=none;startFill=0;endArrow=classic;endFill=1;" parent="hutU6tRgzpRyq-CcQM-8-296" source="hutU6tRgzpRyq-CcQM-8-347" target="hutU6tRgzpRyq-CcQM-8-329" edge="1">
          <mxGeometry relative="1" as="geometry" />
        </mxCell>
        <mxCell id="hutU6tRgzpRyq-CcQM-8-347" value="Se realiza una búsqueda del empleado (enrolamiento) que origino el pedido en la tabla TASRTIMIENTOPED " style="text;html=1;strokeColor=none;fillColor=none;align=center;verticalAlign=middle;whiteSpace=wrap;rounded=0;" parent="hutU6tRgzpRyq-CcQM-8-296" vertex="1">
          <mxGeometry x="338.75" y="124.5" width="163" height="51" as="geometry" />
        </mxCell>
        <mxCell id="hutU6tRgzpRyq-CcQM-8-425" value="wkf_BUSCA_TABITPEDSURTLIQ" style="swimlane;startSize=23;" parent="1" vertex="1">
          <mxGeometry x="2762" y="-123" width="871" height="290" as="geometry">
            <mxRectangle x="845" y="-123" width="229" height="23" as="alternateBounds" />
          </mxGeometry>
        </mxCell>
        <mxCell id="hutU6tRgzpRyq-CcQM-8-375" value="COMP.PEDIDOS_CREDITO_CA_SURTIDOS" style="shape=table;startSize=30;container=1;collapsible=1;childLayout=tableLayout;fixedRows=1;rowLines=0;fontStyle=1;align=center;resizeLast=1;strokeColor=#E1D5E7;fillColor=#E1D5E7;" parent="hutU6tRgzpRyq-CcQM-8-425" vertex="1" collapsed="1">
          <mxGeometry x="37.5" y="94" width="267" height="30" as="geometry">
            <mxRectangle x="2991" y="635" width="210.66" height="245.03309885660804" as="alternateBounds" />
          </mxGeometry>
        </mxCell>
        <mxCell id="hutU6tRgzpRyq-CcQM-8-376" value="" style="shape=partialRectangle;collapsible=0;dropTarget=0;pointerEvents=0;fillColor=none;top=0;left=0;bottom=1;right=0;points=[[0,0.5],[1,0.5]];portConstraint=eastwest;" parent="hutU6tRgzpRyq-CcQM-8-375" vertex="1">
          <mxGeometry y="30" width="210.66" height="30" as="geometry" />
        </mxCell>
        <mxCell id="hutU6tRgzpRyq-CcQM-8-377" value="PK" style="shape=partialRectangle;connectable=0;fillColor=none;top=0;left=0;bottom=0;right=0;fontStyle=1;overflow=hidden;" parent="hutU6tRgzpRyq-CcQM-8-376" vertex="1">
          <mxGeometry width="30" height="30" as="geometry" />
        </mxCell>
        <mxCell id="hutU6tRgzpRyq-CcQM-8-378" value="UniqueID" style="shape=partialRectangle;connectable=0;fillColor=none;top=0;left=0;bottom=0;right=0;align=left;spacingLeft=6;fontStyle=5;overflow=hidden;" parent="hutU6tRgzpRyq-CcQM-8-376" vertex="1">
          <mxGeometry x="30" width="180.66" height="30" as="geometry" />
        </mxCell>
        <mxCell id="hutU6tRgzpRyq-CcQM-8-379" value="" style="shape=partialRectangle;collapsible=0;dropTarget=0;pointerEvents=0;fillColor=none;top=0;left=0;bottom=0;right=0;points=[[0,0.5],[1,0.5]];portConstraint=eastwest;" parent="hutU6tRgzpRyq-CcQM-8-375" vertex="1">
          <mxGeometry y="60" width="210.66" height="185" as="geometry" />
        </mxCell>
        <mxCell id="hutU6tRgzpRyq-CcQM-8-380" value="" style="shape=partialRectangle;connectable=0;fillColor=none;top=0;left=0;bottom=0;right=0;editable=1;overflow=hidden;" parent="hutU6tRgzpRyq-CcQM-8-379" vertex="1">
          <mxGeometry width="30" height="185" as="geometry" />
        </mxCell>
        <mxCell id="hutU6tRgzpRyq-CcQM-8-381" value="FIPAISID&#xa;FICANAL&#xa;FISUCURSAL&#xa;FINOPEDIDO&#xa;FICTECU&#xa;FIPAISCU&#xa;CANALCU&#xa;FOLIOCU&#xa;SUCURSALCU&#xa;FINGCIOID&#xa;FICTEID&#xa;FINOTIENDA&#xa;FIDIGITOVER&#xa;FDFECHASURT&#xa;" style="shape=partialRectangle;connectable=0;fillColor=none;top=0;left=0;bottom=0;right=0;align=left;spacingLeft=6;overflow=hidden;" parent="hutU6tRgzpRyq-CcQM-8-379" vertex="1">
          <mxGeometry x="30" width="180.66" height="185" as="geometry" />
        </mxCell>
        <mxCell id="hutU6tRgzpRyq-CcQM-8-402" value="RCREDITO.TABITPEDSURTLIQ" style="shape=table;startSize=30;container=1;collapsible=1;childLayout=tableLayout;fixedRows=1;rowLines=0;fontStyle=1;align=center;resizeLast=1;strokeColor=#23445d;fillColor=#bac8d3;" parent="hutU6tRgzpRyq-CcQM-8-425" vertex="1" collapsed="1">
          <mxGeometry x="37.5" y="162" width="267" height="30" as="geometry">
            <mxRectangle x="2991" y="694" width="210.66" height="377.75" as="alternateBounds" />
          </mxGeometry>
        </mxCell>
        <mxCell id="hutU6tRgzpRyq-CcQM-8-403" value="" style="shape=partialRectangle;collapsible=0;dropTarget=0;pointerEvents=0;fillColor=none;top=0;left=0;bottom=1;right=0;points=[[0,0.5],[1,0.5]];portConstraint=eastwest;" parent="hutU6tRgzpRyq-CcQM-8-402" vertex="1">
          <mxGeometry y="30" width="210.66" height="30" as="geometry" />
        </mxCell>
        <mxCell id="hutU6tRgzpRyq-CcQM-8-404" value="PK" style="shape=partialRectangle;connectable=0;fillColor=none;top=0;left=0;bottom=0;right=0;fontStyle=1;overflow=hidden;" parent="hutU6tRgzpRyq-CcQM-8-403" vertex="1">
          <mxGeometry width="30" height="30" as="geometry" />
        </mxCell>
        <mxCell id="hutU6tRgzpRyq-CcQM-8-405" value="UniqueID" style="shape=partialRectangle;connectable=0;fillColor=none;top=0;left=0;bottom=0;right=0;align=left;spacingLeft=6;fontStyle=5;overflow=hidden;" parent="hutU6tRgzpRyq-CcQM-8-403" vertex="1">
          <mxGeometry x="30" width="180.66" height="30" as="geometry" />
        </mxCell>
        <mxCell id="hutU6tRgzpRyq-CcQM-8-406" value="" style="shape=partialRectangle;collapsible=0;dropTarget=0;pointerEvents=0;fillColor=none;top=0;left=0;bottom=0;right=0;points=[[0,0.5],[1,0.5]];portConstraint=eastwest;" parent="hutU6tRgzpRyq-CcQM-8-402" vertex="1">
          <mxGeometry y="60" width="210.66" height="314" as="geometry" />
        </mxCell>
        <mxCell id="hutU6tRgzpRyq-CcQM-8-407" value="" style="shape=partialRectangle;connectable=0;fillColor=none;top=0;left=0;bottom=0;right=0;editable=1;overflow=hidden;" parent="hutU6tRgzpRyq-CcQM-8-406" vertex="1">
          <mxGeometry width="30" height="314" as="geometry" />
        </mxCell>
        <mxCell id="hutU6tRgzpRyq-CcQM-8-408" value="FIPAIS&#xa;FICANAL&#xa;FISUCURSAL&#xa;FIFOLIO&#xa;FIFOLIOPARAMS&#xa;FINOPEDIDOLIQ&#xa;FINOPEDIDOSURT&#xa;FICANALS&#xa;FINOTIENDAS&#xa;FDREGISTRO&#xa;FIPAISTRAN&#xa;FICANALTRAN&#xa;FISUCURSALTRAN&#xa;FINOTRAN&#xa;FIPLAZO&#xa;FIPERCORRIDO&#xa;FNMONTOPREPAGO&#xa;FIESSEGURO&#xa;FINOPEDIDOPPSEG&#xa;FDULTIMA_MODIFICACION&#xa;FCUSUARIO_MODIFICO" style="shape=partialRectangle;connectable=0;fillColor=none;top=0;left=0;bottom=0;right=0;align=left;spacingLeft=6;overflow=hidden;" parent="hutU6tRgzpRyq-CcQM-8-406" vertex="1">
          <mxGeometry x="30" width="180.66" height="314" as="geometry" />
        </mxCell>
        <mxCell id="hutU6tRgzpRyq-CcQM-8-415" style="edgeStyle=orthogonalEdgeStyle;rounded=0;orthogonalLoop=1;jettySize=auto;html=1;entryX=1;entryY=0.5;entryDx=0;entryDy=0;startArrow=none;startFill=0;endArrow=none;endFill=0;" parent="hutU6tRgzpRyq-CcQM-8-425" source="hutU6tRgzpRyq-CcQM-8-375" target="hutU6tRgzpRyq-CcQM-8-402" edge="1">
          <mxGeometry relative="1" as="geometry">
            <Array as="points">
              <mxPoint x="324.5" y="109" />
              <mxPoint x="324.5" y="177" />
            </Array>
          </mxGeometry>
        </mxCell>
        <mxCell id="hutU6tRgzpRyq-CcQM-8-416" value="dbo.TABITPEDSURTLIQ" style="shape=table;startSize=30;container=1;collapsible=1;childLayout=tableLayout;fixedRows=1;rowLines=0;fontStyle=1;align=center;resizeLast=1;strokeColor=#10739e;fillColor=#b1ddf0;" parent="hutU6tRgzpRyq-CcQM-8-425" vertex="1" collapsed="1">
          <mxGeometry x="657.5" y="128" width="176" height="30" as="geometry">
            <mxRectangle x="657.5" y="128" width="210.66" height="339.25" as="alternateBounds" />
          </mxGeometry>
        </mxCell>
        <mxCell id="hutU6tRgzpRyq-CcQM-8-417" value="" style="shape=partialRectangle;collapsible=0;dropTarget=0;pointerEvents=0;fillColor=none;top=0;left=0;bottom=1;right=0;points=[[0,0.5],[1,0.5]];portConstraint=eastwest;" parent="hutU6tRgzpRyq-CcQM-8-416" vertex="1">
          <mxGeometry y="30" width="210.66" height="30" as="geometry" />
        </mxCell>
        <mxCell id="hutU6tRgzpRyq-CcQM-8-418" value="PK" style="shape=partialRectangle;connectable=0;fillColor=none;top=0;left=0;bottom=0;right=0;fontStyle=1;overflow=hidden;" parent="hutU6tRgzpRyq-CcQM-8-417" vertex="1">
          <mxGeometry width="30" height="30" as="geometry" />
        </mxCell>
        <mxCell id="hutU6tRgzpRyq-CcQM-8-419" value="UniqueID" style="shape=partialRectangle;connectable=0;fillColor=none;top=0;left=0;bottom=0;right=0;align=left;spacingLeft=6;fontStyle=5;overflow=hidden;" parent="hutU6tRgzpRyq-CcQM-8-417" vertex="1">
          <mxGeometry x="30" width="180.66" height="30" as="geometry" />
        </mxCell>
        <mxCell id="hutU6tRgzpRyq-CcQM-8-420" value="" style="shape=partialRectangle;collapsible=0;dropTarget=0;pointerEvents=0;fillColor=none;top=0;left=0;bottom=0;right=0;points=[[0,0.5],[1,0.5]];portConstraint=eastwest;" parent="hutU6tRgzpRyq-CcQM-8-416" vertex="1">
          <mxGeometry y="60" width="210.66" height="276" as="geometry" />
        </mxCell>
        <mxCell id="hutU6tRgzpRyq-CcQM-8-421" value="" style="shape=partialRectangle;connectable=0;fillColor=none;top=0;left=0;bottom=0;right=0;editable=1;overflow=hidden;" parent="hutU6tRgzpRyq-CcQM-8-420" vertex="1">
          <mxGeometry width="30" height="276" as="geometry" />
        </mxCell>
        <mxCell id="hutU6tRgzpRyq-CcQM-8-422" value="FIPAIS&#xa;FICANAL&#xa;FISUCURSAL&#xa;FIFOLIO&#xa;FIFOLIOPARAMS&#xa;FINOPEDIDOSURT&#xa;FINOPEDIDOLIQ&#xa;FICANALS&#xa;FINOTIENDAS&#xa;FDREGISTRO&#xa;FIPAISTRAN&#xa;FICANALTRAN&#xa;FISUCURSALTRAN&#xa;FINOTRAN&#xa;FIPLAZO&#xa;FIPERCORRIDO&#xa;FNMONTOPREPAGO&#xa;FIESSEGURO&#xa;FINOPEDIDOPPSEG" style="shape=partialRectangle;connectable=0;fillColor=none;top=0;left=0;bottom=0;right=0;align=left;spacingLeft=6;overflow=hidden;" parent="hutU6tRgzpRyq-CcQM-8-420" vertex="1">
          <mxGeometry x="30" width="180.66" height="276" as="geometry" />
        </mxCell>
        <mxCell id="hutU6tRgzpRyq-CcQM-8-455" style="edgeStyle=orthogonalEdgeStyle;rounded=0;orthogonalLoop=1;jettySize=auto;html=1;entryX=0;entryY=0.5;entryDx=0;entryDy=0;startArrow=none;startFill=0;endArrow=classic;endFill=1;" parent="hutU6tRgzpRyq-CcQM-8-425" source="hutU6tRgzpRyq-CcQM-8-452" target="hutU6tRgzpRyq-CcQM-8-416" edge="1">
          <mxGeometry relative="1" as="geometry" />
        </mxCell>
        <mxCell id="hutU6tRgzpRyq-CcQM-8-457" style="edgeStyle=orthogonalEdgeStyle;rounded=0;orthogonalLoop=1;jettySize=auto;html=1;startArrow=classic;startFill=1;endArrow=none;endFill=0;" parent="hutU6tRgzpRyq-CcQM-8-425" source="hutU6tRgzpRyq-CcQM-8-452" edge="1">
          <mxGeometry relative="1" as="geometry">
            <mxPoint x="325.5" y="143" as="targetPoint" />
          </mxGeometry>
        </mxCell>
        <mxCell id="hutU6tRgzpRyq-CcQM-8-452" value="Se realiza la búsqueda de pedidos que son renovaciones" style="text;html=1;strokeColor=none;fillColor=none;align=center;verticalAlign=middle;whiteSpace=wrap;rounded=0;" parent="hutU6tRgzpRyq-CcQM-8-425" vertex="1">
          <mxGeometry x="412.5" y="117.5" width="163" height="51" as="geometry" />
        </mxCell>
        <mxCell id="ZbzUIR6lRue4rK1-tcVg-26" value="wkf_BUSCA_CREDVENTATDAGESTORA" style="swimlane;startSize=23;" vertex="1" parent="1">
          <mxGeometry x="2760" y="221" width="871" height="290" as="geometry">
            <mxRectangle x="845" y="-123" width="229" height="23" as="alternateBounds" />
          </mxGeometry>
        </mxCell>
        <mxCell id="ZbzUIR6lRue4rK1-tcVg-1" value="COMP.PEDIDOS_CREDITO_CA_SURTIDOS" style="shape=table;startSize=30;container=1;collapsible=1;childLayout=tableLayout;fixedRows=1;rowLines=0;fontStyle=1;align=center;resizeLast=1;strokeColor=#E1D5E7;fillColor=#E1D5E7;" vertex="1" collapsed="1" parent="ZbzUIR6lRue4rK1-tcVg-26">
          <mxGeometry x="18.25" y="96" width="267" height="30" as="geometry">
            <mxRectangle x="2991" y="635" width="210.66" height="245.03309885660804" as="alternateBounds" />
          </mxGeometry>
        </mxCell>
        <mxCell id="ZbzUIR6lRue4rK1-tcVg-2" value="" style="shape=partialRectangle;collapsible=0;dropTarget=0;pointerEvents=0;fillColor=none;top=0;left=0;bottom=1;right=0;points=[[0,0.5],[1,0.5]];portConstraint=eastwest;" vertex="1" parent="ZbzUIR6lRue4rK1-tcVg-1">
          <mxGeometry y="30" width="210.66" height="30" as="geometry" />
        </mxCell>
        <mxCell id="ZbzUIR6lRue4rK1-tcVg-3" value="PK" style="shape=partialRectangle;connectable=0;fillColor=none;top=0;left=0;bottom=0;right=0;fontStyle=1;overflow=hidden;" vertex="1" parent="ZbzUIR6lRue4rK1-tcVg-2">
          <mxGeometry width="30" height="30" as="geometry" />
        </mxCell>
        <mxCell id="ZbzUIR6lRue4rK1-tcVg-4" value="UniqueID" style="shape=partialRectangle;connectable=0;fillColor=none;top=0;left=0;bottom=0;right=0;align=left;spacingLeft=6;fontStyle=5;overflow=hidden;" vertex="1" parent="ZbzUIR6lRue4rK1-tcVg-2">
          <mxGeometry x="30" width="180.66" height="30" as="geometry" />
        </mxCell>
        <mxCell id="ZbzUIR6lRue4rK1-tcVg-5" value="" style="shape=partialRectangle;collapsible=0;dropTarget=0;pointerEvents=0;fillColor=none;top=0;left=0;bottom=0;right=0;points=[[0,0.5],[1,0.5]];portConstraint=eastwest;" vertex="1" parent="ZbzUIR6lRue4rK1-tcVg-1">
          <mxGeometry y="60" width="210.66" height="185" as="geometry" />
        </mxCell>
        <mxCell id="ZbzUIR6lRue4rK1-tcVg-6" value="" style="shape=partialRectangle;connectable=0;fillColor=none;top=0;left=0;bottom=0;right=0;editable=1;overflow=hidden;" vertex="1" parent="ZbzUIR6lRue4rK1-tcVg-5">
          <mxGeometry width="30" height="185" as="geometry" />
        </mxCell>
        <mxCell id="ZbzUIR6lRue4rK1-tcVg-7" value="FIPAISID&#xa;FICANAL&#xa;FISUCURSAL&#xa;FINOPEDIDO&#xa;FICTECU&#xa;FIPAISCU&#xa;CANALCU&#xa;FOLIOCU&#xa;SUCURSALCU&#xa;FINGCIOID&#xa;FICTEID&#xa;FINOTIENDA&#xa;FIDIGITOVER&#xa;FDFECHASURT&#xa;" style="shape=partialRectangle;connectable=0;fillColor=none;top=0;left=0;bottom=0;right=0;align=left;spacingLeft=6;overflow=hidden;" vertex="1" parent="ZbzUIR6lRue4rK1-tcVg-5">
          <mxGeometry x="30" width="180.66" height="185" as="geometry" />
        </mxCell>
        <mxCell id="ZbzUIR6lRue4rK1-tcVg-8" value="RCREDITO.CREDVENTATDAGESTORA" style="shape=table;startSize=30;container=1;collapsible=1;childLayout=tableLayout;fixedRows=1;rowLines=0;fontStyle=1;align=center;resizeLast=1;strokeColor=#0e8088;fillColor=#b0e3e6;" vertex="1" collapsed="1" parent="ZbzUIR6lRue4rK1-tcVg-26">
          <mxGeometry x="18.25" y="164" width="267" height="30" as="geometry">
            <mxRectangle x="2808.5" y="630" width="210.66" height="313.5" as="alternateBounds" />
          </mxGeometry>
        </mxCell>
        <mxCell id="ZbzUIR6lRue4rK1-tcVg-9" value="" style="shape=partialRectangle;collapsible=0;dropTarget=0;pointerEvents=0;fillColor=none;top=0;left=0;bottom=1;right=0;points=[[0,0.5],[1,0.5]];portConstraint=eastwest;" vertex="1" parent="ZbzUIR6lRue4rK1-tcVg-8">
          <mxGeometry y="30" width="210.66" height="30" as="geometry" />
        </mxCell>
        <mxCell id="ZbzUIR6lRue4rK1-tcVg-10" value="PK" style="shape=partialRectangle;connectable=0;fillColor=none;top=0;left=0;bottom=0;right=0;fontStyle=1;overflow=hidden;" vertex="1" parent="ZbzUIR6lRue4rK1-tcVg-9">
          <mxGeometry width="30" height="30" as="geometry" />
        </mxCell>
        <mxCell id="ZbzUIR6lRue4rK1-tcVg-11" value="UniqueID" style="shape=partialRectangle;connectable=0;fillColor=none;top=0;left=0;bottom=0;right=0;align=left;spacingLeft=6;fontStyle=5;overflow=hidden;" vertex="1" parent="ZbzUIR6lRue4rK1-tcVg-9">
          <mxGeometry x="30" width="180.66" height="30" as="geometry" />
        </mxCell>
        <mxCell id="ZbzUIR6lRue4rK1-tcVg-12" value="" style="shape=partialRectangle;collapsible=0;dropTarget=0;pointerEvents=0;fillColor=none;top=0;left=0;bottom=0;right=0;points=[[0,0.5],[1,0.5]];portConstraint=eastwest;" vertex="1" parent="ZbzUIR6lRue4rK1-tcVg-8">
          <mxGeometry y="60" width="210.66" height="250" as="geometry" />
        </mxCell>
        <mxCell id="ZbzUIR6lRue4rK1-tcVg-13" value="" style="shape=partialRectangle;connectable=0;fillColor=none;top=0;left=0;bottom=0;right=0;editable=1;overflow=hidden;" vertex="1" parent="ZbzUIR6lRue4rK1-tcVg-12">
          <mxGeometry width="30" height="250" as="geometry" />
        </mxCell>
        <mxCell id="ZbzUIR6lRue4rK1-tcVg-14" value="FIPAISID&#xa;FICANALID&#xa;FISUCURSAL&#xa;FINOPEDIDO&#xa;FICONSECPEDIDO&#xa;FICANAL&#xa;FINOTIENDAVEND&#xa;FINOPEDIDOVEND&#xa;FIAUTORIZACION&#xa;FCTARJETA&#xa;FINUMAFILIACIONVEND&#xa;FCCOMERCIO&#xa;FIPAISADICIONAL&#xa;FICANALADICIONAL&#xa;FISUCURSALADICIONAL&#xa;FIFOLIOADICIONAL&#xa;FCTARJETAADICIONAL" style="shape=partialRectangle;connectable=0;fillColor=none;top=0;left=0;bottom=0;right=0;align=left;spacingLeft=6;overflow=hidden;" vertex="1" parent="ZbzUIR6lRue4rK1-tcVg-12">
          <mxGeometry x="30" width="180.66" height="250" as="geometry" />
        </mxCell>
        <mxCell id="ZbzUIR6lRue4rK1-tcVg-15" style="edgeStyle=orthogonalEdgeStyle;rounded=0;orthogonalLoop=1;jettySize=auto;html=1;entryX=1;entryY=0.5;entryDx=0;entryDy=0;startArrow=none;startFill=0;endArrow=none;endFill=0;" edge="1" parent="ZbzUIR6lRue4rK1-tcVg-26" source="ZbzUIR6lRue4rK1-tcVg-1" target="ZbzUIR6lRue4rK1-tcVg-8">
          <mxGeometry relative="1" as="geometry">
            <Array as="points">
              <mxPoint x="305.25" y="111" />
              <mxPoint x="305.25" y="179" />
            </Array>
          </mxGeometry>
        </mxCell>
        <mxCell id="ZbzUIR6lRue4rK1-tcVg-16" value="dbo.CREDVENTATDAGESTORA" style="shape=table;startSize=30;container=1;collapsible=1;childLayout=tableLayout;fixedRows=1;rowLines=0;fontStyle=1;align=center;resizeLast=1;strokeColor=#ae4132;fillColor=#fad9d5;" vertex="1" collapsed="1" parent="ZbzUIR6lRue4rK1-tcVg-26">
          <mxGeometry x="638.25" y="130" width="214.5" height="30" as="geometry">
            <mxRectangle x="3428.5" y="596" width="210.66" height="315.75" as="alternateBounds" />
          </mxGeometry>
        </mxCell>
        <mxCell id="ZbzUIR6lRue4rK1-tcVg-17" value="" style="shape=partialRectangle;collapsible=0;dropTarget=0;pointerEvents=0;fillColor=none;top=0;left=0;bottom=1;right=0;points=[[0,0.5],[1,0.5]];portConstraint=eastwest;" vertex="1" parent="ZbzUIR6lRue4rK1-tcVg-16">
          <mxGeometry y="30" width="210.66" height="30" as="geometry" />
        </mxCell>
        <mxCell id="ZbzUIR6lRue4rK1-tcVg-18" value="PK" style="shape=partialRectangle;connectable=0;fillColor=none;top=0;left=0;bottom=0;right=0;fontStyle=1;overflow=hidden;" vertex="1" parent="ZbzUIR6lRue4rK1-tcVg-17">
          <mxGeometry width="30" height="30" as="geometry" />
        </mxCell>
        <mxCell id="ZbzUIR6lRue4rK1-tcVg-19" value="UniqueID" style="shape=partialRectangle;connectable=0;fillColor=none;top=0;left=0;bottom=0;right=0;align=left;spacingLeft=6;fontStyle=5;overflow=hidden;" vertex="1" parent="ZbzUIR6lRue4rK1-tcVg-17">
          <mxGeometry x="30" width="180.66" height="30" as="geometry" />
        </mxCell>
        <mxCell id="ZbzUIR6lRue4rK1-tcVg-20" value="" style="shape=partialRectangle;collapsible=0;dropTarget=0;pointerEvents=0;fillColor=none;top=0;left=0;bottom=0;right=0;points=[[0,0.5],[1,0.5]];portConstraint=eastwest;" vertex="1" parent="ZbzUIR6lRue4rK1-tcVg-16">
          <mxGeometry y="60" width="210.66" height="253" as="geometry" />
        </mxCell>
        <mxCell id="ZbzUIR6lRue4rK1-tcVg-21" value="" style="shape=partialRectangle;connectable=0;fillColor=none;top=0;left=0;bottom=0;right=0;editable=1;overflow=hidden;" vertex="1" parent="ZbzUIR6lRue4rK1-tcVg-20">
          <mxGeometry width="30" height="253" as="geometry" />
        </mxCell>
        <mxCell id="ZbzUIR6lRue4rK1-tcVg-22" value="FIPAISID&#xa;FICANALID&#xa;FISUCURSAL&#xa;FINOPEDIDO&#xa;FICONSECPEDIDO&#xa;FICANAL&#xa;FINOTIENDAVEND&#xa;FINOPEDIDOVEND&#xa;FIAUTORIZACION&#xa;FCTARJETA&#xa;FINUMAFILIACIONVEND&#xa;FCCOMERCIO&#xa;FIPAISADICIONAL&#xa;FICANALADICIONAL&#xa;FISUCURSALADICIONAL&#xa;FIFOLIOADICIONAL&#xa;FCTARJETAADICIONAL" style="shape=partialRectangle;connectable=0;fillColor=none;top=0;left=0;bottom=0;right=0;align=left;spacingLeft=6;overflow=hidden;" vertex="1" parent="ZbzUIR6lRue4rK1-tcVg-20">
          <mxGeometry x="30" width="180.66" height="253" as="geometry" />
        </mxCell>
        <mxCell id="ZbzUIR6lRue4rK1-tcVg-23" style="edgeStyle=orthogonalEdgeStyle;rounded=0;orthogonalLoop=1;jettySize=auto;html=1;entryX=0;entryY=0.5;entryDx=0;entryDy=0;startArrow=none;startFill=0;endArrow=classic;endFill=1;" edge="1" parent="ZbzUIR6lRue4rK1-tcVg-26" source="ZbzUIR6lRue4rK1-tcVg-25" target="ZbzUIR6lRue4rK1-tcVg-16">
          <mxGeometry relative="1" as="geometry" />
        </mxCell>
        <mxCell id="ZbzUIR6lRue4rK1-tcVg-24" style="edgeStyle=orthogonalEdgeStyle;rounded=0;orthogonalLoop=1;jettySize=auto;html=1;startArrow=classic;startFill=1;endArrow=none;endFill=0;" edge="1" parent="ZbzUIR6lRue4rK1-tcVg-26" source="ZbzUIR6lRue4rK1-tcVg-25">
          <mxGeometry relative="1" as="geometry">
            <mxPoint x="306.25" y="145" as="targetPoint" />
          </mxGeometry>
        </mxCell>
        <mxCell id="ZbzUIR6lRue4rK1-tcVg-25" value="Se realiza la búsqueda de la información del pedido creado en la tienda gestora" style="text;html=1;strokeColor=none;fillColor=none;align=center;verticalAlign=middle;whiteSpace=wrap;rounded=0;" vertex="1" parent="ZbzUIR6lRue4rK1-tcVg-26">
          <mxGeometry x="393.25" y="119.5" width="163" height="51" as="geometry" />
        </mxCell>
        <mxCell id="ZbzUIR6lRue4rK1-tcVg-77" value="wkf_BUSCA_TACRLPROMOCIONPRONTOPAGO" style="swimlane;startSize=23;" vertex="1" parent="1">
          <mxGeometry x="2762" y="580" width="871" height="290" as="geometry">
            <mxRectangle x="845" y="-123" width="229" height="23" as="alternateBounds" />
          </mxGeometry>
        </mxCell>
        <mxCell id="ZbzUIR6lRue4rK1-tcVg-52" value="COMP.PEDIDOS_CREDITO_CA_SURTIDOS" style="shape=table;startSize=30;container=1;collapsible=1;childLayout=tableLayout;fixedRows=1;rowLines=0;fontStyle=1;align=center;resizeLast=1;strokeColor=#E1D5E7;fillColor=#E1D5E7;" vertex="1" collapsed="1" parent="ZbzUIR6lRue4rK1-tcVg-77">
          <mxGeometry x="-2" y="104" width="267" height="30" as="geometry">
            <mxRectangle x="2991" y="635" width="210.66" height="245.03309885660804" as="alternateBounds" />
          </mxGeometry>
        </mxCell>
        <mxCell id="ZbzUIR6lRue4rK1-tcVg-53" value="" style="shape=partialRectangle;collapsible=0;dropTarget=0;pointerEvents=0;fillColor=none;top=0;left=0;bottom=1;right=0;points=[[0,0.5],[1,0.5]];portConstraint=eastwest;" vertex="1" parent="ZbzUIR6lRue4rK1-tcVg-52">
          <mxGeometry y="30" width="210.66" height="30" as="geometry" />
        </mxCell>
        <mxCell id="ZbzUIR6lRue4rK1-tcVg-54" value="PK" style="shape=partialRectangle;connectable=0;fillColor=none;top=0;left=0;bottom=0;right=0;fontStyle=1;overflow=hidden;" vertex="1" parent="ZbzUIR6lRue4rK1-tcVg-53">
          <mxGeometry width="30" height="30" as="geometry" />
        </mxCell>
        <mxCell id="ZbzUIR6lRue4rK1-tcVg-55" value="UniqueID" style="shape=partialRectangle;connectable=0;fillColor=none;top=0;left=0;bottom=0;right=0;align=left;spacingLeft=6;fontStyle=5;overflow=hidden;" vertex="1" parent="ZbzUIR6lRue4rK1-tcVg-53">
          <mxGeometry x="30" width="180.66" height="30" as="geometry" />
        </mxCell>
        <mxCell id="ZbzUIR6lRue4rK1-tcVg-56" value="" style="shape=partialRectangle;collapsible=0;dropTarget=0;pointerEvents=0;fillColor=none;top=0;left=0;bottom=0;right=0;points=[[0,0.5],[1,0.5]];portConstraint=eastwest;" vertex="1" parent="ZbzUIR6lRue4rK1-tcVg-52">
          <mxGeometry y="60" width="210.66" height="185" as="geometry" />
        </mxCell>
        <mxCell id="ZbzUIR6lRue4rK1-tcVg-57" value="" style="shape=partialRectangle;connectable=0;fillColor=none;top=0;left=0;bottom=0;right=0;editable=1;overflow=hidden;" vertex="1" parent="ZbzUIR6lRue4rK1-tcVg-56">
          <mxGeometry width="30" height="185" as="geometry" />
        </mxCell>
        <mxCell id="ZbzUIR6lRue4rK1-tcVg-58" value="FIPAISID&#xa;FICANAL&#xa;FISUCURSAL&#xa;FINOPEDIDO&#xa;FICTECU&#xa;FIPAISCU&#xa;CANALCU&#xa;FOLIOCU&#xa;SUCURSALCU&#xa;FINGCIOID&#xa;FICTEID&#xa;FINOTIENDA&#xa;FIDIGITOVER&#xa;FDFECHASURT&#xa;" style="shape=partialRectangle;connectable=0;fillColor=none;top=0;left=0;bottom=0;right=0;align=left;spacingLeft=6;overflow=hidden;" vertex="1" parent="ZbzUIR6lRue4rK1-tcVg-56">
          <mxGeometry x="30" width="180.66" height="185" as="geometry" />
        </mxCell>
        <mxCell id="ZbzUIR6lRue4rK1-tcVg-59" value="RCREDITO.TACRLPROMOCIONPRONTOPAGO" style="shape=table;startSize=30;container=1;collapsible=1;childLayout=tableLayout;fixedRows=1;rowLines=0;fontStyle=1;align=center;resizeLast=1;strokeColor=#666666;fillColor=#f5f5f5;fontColor=#333333;" vertex="1" collapsed="1" parent="ZbzUIR6lRue4rK1-tcVg-77">
          <mxGeometry x="-2" y="172" width="267" height="30" as="geometry">
            <mxRectangle x="2777" y="963" width="210.66" height="269" as="alternateBounds" />
          </mxGeometry>
        </mxCell>
        <mxCell id="ZbzUIR6lRue4rK1-tcVg-60" value="" style="shape=partialRectangle;collapsible=0;dropTarget=0;pointerEvents=0;fillColor=none;top=0;left=0;bottom=1;right=0;points=[[0,0.5],[1,0.5]];portConstraint=eastwest;" vertex="1" parent="ZbzUIR6lRue4rK1-tcVg-59">
          <mxGeometry y="30" width="210.66" height="30" as="geometry" />
        </mxCell>
        <mxCell id="ZbzUIR6lRue4rK1-tcVg-61" value="PK" style="shape=partialRectangle;connectable=0;fillColor=none;top=0;left=0;bottom=0;right=0;fontStyle=1;overflow=hidden;" vertex="1" parent="ZbzUIR6lRue4rK1-tcVg-60">
          <mxGeometry width="30" height="30" as="geometry" />
        </mxCell>
        <mxCell id="ZbzUIR6lRue4rK1-tcVg-62" value="UniqueID" style="shape=partialRectangle;connectable=0;fillColor=none;top=0;left=0;bottom=0;right=0;align=left;spacingLeft=6;fontStyle=5;overflow=hidden;" vertex="1" parent="ZbzUIR6lRue4rK1-tcVg-60">
          <mxGeometry x="30" width="180.66" height="30" as="geometry" />
        </mxCell>
        <mxCell id="ZbzUIR6lRue4rK1-tcVg-63" value="" style="shape=partialRectangle;collapsible=0;dropTarget=0;pointerEvents=0;fillColor=none;top=0;left=0;bottom=0;right=0;points=[[0,0.5],[1,0.5]];portConstraint=eastwest;" vertex="1" parent="ZbzUIR6lRue4rK1-tcVg-59">
          <mxGeometry y="60" width="210.66" height="206" as="geometry" />
        </mxCell>
        <mxCell id="ZbzUIR6lRue4rK1-tcVg-64" value="" style="shape=partialRectangle;connectable=0;fillColor=none;top=0;left=0;bottom=0;right=0;editable=1;overflow=hidden;" vertex="1" parent="ZbzUIR6lRue4rK1-tcVg-63">
          <mxGeometry width="30" height="206" as="geometry" />
        </mxCell>
        <mxCell id="ZbzUIR6lRue4rK1-tcVg-65" value="FIPAIS&#xa;FICANAL&#xa;FISUCURSAL&#xa;FIFOLIOPARAM&#xa;FDPROMOCION&#xa;FNABONOPROMOCION&#xa;FNPORCDESCUENTO&#xa;FISTATUS&#xa;FINOPEDIDO&#xa;FIPAGOPUNTUAL&#xa;FNMONTOABONO&#xa;FNMONTOBONIFICA&#xa;FNMORATORIOS&#xa;FDFECHAABONO" style="shape=partialRectangle;connectable=0;fillColor=none;top=0;left=0;bottom=0;right=0;align=left;spacingLeft=6;overflow=hidden;" vertex="1" parent="ZbzUIR6lRue4rK1-tcVg-63">
          <mxGeometry x="30" width="180.66" height="206" as="geometry" />
        </mxCell>
        <mxCell id="ZbzUIR6lRue4rK1-tcVg-66" style="edgeStyle=orthogonalEdgeStyle;rounded=0;orthogonalLoop=1;jettySize=auto;html=1;entryX=1;entryY=0.5;entryDx=0;entryDy=0;startArrow=none;startFill=0;endArrow=none;endFill=0;" edge="1" parent="ZbzUIR6lRue4rK1-tcVg-77" source="ZbzUIR6lRue4rK1-tcVg-52" target="ZbzUIR6lRue4rK1-tcVg-59">
          <mxGeometry relative="1" as="geometry">
            <Array as="points">
              <mxPoint x="285" y="119" />
              <mxPoint x="285" y="187" />
            </Array>
          </mxGeometry>
        </mxCell>
        <mxCell id="ZbzUIR6lRue4rK1-tcVg-67" value="COMP.TACRLPROMOCIONPRONTOPAGO" style="shape=table;startSize=30;container=1;collapsible=1;childLayout=tableLayout;fixedRows=1;rowLines=0;fontStyle=1;align=center;resizeLast=1;strokeColor=#6c8ebf;fillColor=#dae8fc;" vertex="1" collapsed="1" parent="ZbzUIR6lRue4rK1-tcVg-77">
          <mxGeometry x="618" y="138" width="250" height="30" as="geometry">
            <mxRectangle x="3397" y="929" width="210.66" height="273.25" as="alternateBounds" />
          </mxGeometry>
        </mxCell>
        <mxCell id="ZbzUIR6lRue4rK1-tcVg-68" value="" style="shape=partialRectangle;collapsible=0;dropTarget=0;pointerEvents=0;fillColor=none;top=0;left=0;bottom=1;right=0;points=[[0,0.5],[1,0.5]];portConstraint=eastwest;" vertex="1" parent="ZbzUIR6lRue4rK1-tcVg-67">
          <mxGeometry y="30" width="210.66" height="30" as="geometry" />
        </mxCell>
        <mxCell id="ZbzUIR6lRue4rK1-tcVg-69" value="PK" style="shape=partialRectangle;connectable=0;fillColor=none;top=0;left=0;bottom=0;right=0;fontStyle=1;overflow=hidden;" vertex="1" parent="ZbzUIR6lRue4rK1-tcVg-68">
          <mxGeometry width="30" height="30" as="geometry" />
        </mxCell>
        <mxCell id="ZbzUIR6lRue4rK1-tcVg-70" value="UniqueID" style="shape=partialRectangle;connectable=0;fillColor=none;top=0;left=0;bottom=0;right=0;align=left;spacingLeft=6;fontStyle=5;overflow=hidden;" vertex="1" parent="ZbzUIR6lRue4rK1-tcVg-68">
          <mxGeometry x="30" width="180.66" height="30" as="geometry" />
        </mxCell>
        <mxCell id="ZbzUIR6lRue4rK1-tcVg-71" value="" style="shape=partialRectangle;collapsible=0;dropTarget=0;pointerEvents=0;fillColor=none;top=0;left=0;bottom=0;right=0;points=[[0,0.5],[1,0.5]];portConstraint=eastwest;" vertex="1" parent="ZbzUIR6lRue4rK1-tcVg-67">
          <mxGeometry y="60" width="210.66" height="211" as="geometry" />
        </mxCell>
        <mxCell id="ZbzUIR6lRue4rK1-tcVg-72" value="" style="shape=partialRectangle;connectable=0;fillColor=none;top=0;left=0;bottom=0;right=0;editable=1;overflow=hidden;" vertex="1" parent="ZbzUIR6lRue4rK1-tcVg-71">
          <mxGeometry width="30" height="211" as="geometry" />
        </mxCell>
        <mxCell id="ZbzUIR6lRue4rK1-tcVg-73" value="FIPAIS&#xa;FICANAL&#xa;FISUCURSAL&#xa;FIFOLIOPARAM&#xa;FDPROMOCION&#xa;FNABONOPROMOCION&#xa;FNPORCDESCUENTO&#xa;FISTATUS&#xa;FINOPEDIDO&#xa;FIPAGOPUNTUAL&#xa;FNMONTOABONO&#xa;FNMONTOBONIFICA&#xa;FNMORATORIOS&#xa;FDFECHAABONO" style="shape=partialRectangle;connectable=0;fillColor=none;top=0;left=0;bottom=0;right=0;align=left;spacingLeft=6;overflow=hidden;" vertex="1" parent="ZbzUIR6lRue4rK1-tcVg-71">
          <mxGeometry x="30" width="180.66" height="211" as="geometry" />
        </mxCell>
        <mxCell id="ZbzUIR6lRue4rK1-tcVg-74" style="edgeStyle=orthogonalEdgeStyle;rounded=0;orthogonalLoop=1;jettySize=auto;html=1;entryX=0;entryY=0.5;entryDx=0;entryDy=0;startArrow=none;startFill=0;endArrow=classic;endFill=1;" edge="1" parent="ZbzUIR6lRue4rK1-tcVg-77" source="ZbzUIR6lRue4rK1-tcVg-76" target="ZbzUIR6lRue4rK1-tcVg-67">
          <mxGeometry relative="1" as="geometry" />
        </mxCell>
        <mxCell id="ZbzUIR6lRue4rK1-tcVg-75" style="edgeStyle=orthogonalEdgeStyle;rounded=0;orthogonalLoop=1;jettySize=auto;html=1;startArrow=classic;startFill=1;endArrow=none;endFill=0;" edge="1" parent="ZbzUIR6lRue4rK1-tcVg-77" source="ZbzUIR6lRue4rK1-tcVg-76">
          <mxGeometry relative="1" as="geometry">
            <mxPoint x="286" y="153" as="targetPoint" />
          </mxGeometry>
        </mxCell>
        <mxCell id="ZbzUIR6lRue4rK1-tcVg-76" value="Se realiza la búsqueda de la información del pago puntual" style="text;html=1;strokeColor=none;fillColor=none;align=center;verticalAlign=middle;whiteSpace=wrap;rounded=0;" vertex="1" parent="ZbzUIR6lRue4rK1-tcVg-77">
          <mxGeometry x="373" y="127.5" width="163" height="51" as="geometry" />
        </mxCell>
        <mxCell id="ZbzUIR6lRue4rK1-tcVg-135" value="wkf_BUSCA_PEDIDOS_SURT_EMP" style="swimlane;startSize=23;" vertex="1" parent="1">
          <mxGeometry x="2762" y="945" width="871" height="290" as="geometry">
            <mxRectangle x="845" y="-123" width="229" height="23" as="alternateBounds" />
          </mxGeometry>
        </mxCell>
        <mxCell id="ZbzUIR6lRue4rK1-tcVg-103" value="COMP.PEDIDOS_CREDITO_CA_SURTIDOS" style="shape=table;startSize=30;container=1;collapsible=1;childLayout=tableLayout;fixedRows=1;rowLines=0;fontStyle=1;align=center;resizeLast=1;strokeColor=#E1D5E7;fillColor=#E1D5E7;" vertex="1" collapsed="1" parent="ZbzUIR6lRue4rK1-tcVg-135">
          <mxGeometry x="-1" y="97" width="267" height="30" as="geometry">
            <mxRectangle x="2991" y="635" width="210.66" height="245.03309885660804" as="alternateBounds" />
          </mxGeometry>
        </mxCell>
        <mxCell id="ZbzUIR6lRue4rK1-tcVg-104" value="" style="shape=partialRectangle;collapsible=0;dropTarget=0;pointerEvents=0;fillColor=none;top=0;left=0;bottom=1;right=0;points=[[0,0.5],[1,0.5]];portConstraint=eastwest;" vertex="1" parent="ZbzUIR6lRue4rK1-tcVg-103">
          <mxGeometry y="30" width="210.66" height="30" as="geometry" />
        </mxCell>
        <mxCell id="ZbzUIR6lRue4rK1-tcVg-105" value="PK" style="shape=partialRectangle;connectable=0;fillColor=none;top=0;left=0;bottom=0;right=0;fontStyle=1;overflow=hidden;" vertex="1" parent="ZbzUIR6lRue4rK1-tcVg-104">
          <mxGeometry width="30" height="30" as="geometry" />
        </mxCell>
        <mxCell id="ZbzUIR6lRue4rK1-tcVg-106" value="UniqueID" style="shape=partialRectangle;connectable=0;fillColor=none;top=0;left=0;bottom=0;right=0;align=left;spacingLeft=6;fontStyle=5;overflow=hidden;" vertex="1" parent="ZbzUIR6lRue4rK1-tcVg-104">
          <mxGeometry x="30" width="180.66" height="30" as="geometry" />
        </mxCell>
        <mxCell id="ZbzUIR6lRue4rK1-tcVg-107" value="" style="shape=partialRectangle;collapsible=0;dropTarget=0;pointerEvents=0;fillColor=none;top=0;left=0;bottom=0;right=0;points=[[0,0.5],[1,0.5]];portConstraint=eastwest;" vertex="1" parent="ZbzUIR6lRue4rK1-tcVg-103">
          <mxGeometry y="60" width="210.66" height="185" as="geometry" />
        </mxCell>
        <mxCell id="ZbzUIR6lRue4rK1-tcVg-108" value="" style="shape=partialRectangle;connectable=0;fillColor=none;top=0;left=0;bottom=0;right=0;editable=1;overflow=hidden;" vertex="1" parent="ZbzUIR6lRue4rK1-tcVg-107">
          <mxGeometry width="30" height="185" as="geometry" />
        </mxCell>
        <mxCell id="ZbzUIR6lRue4rK1-tcVg-109" value="FIPAISID&#xa;FICANAL&#xa;FISUCURSAL&#xa;FINOPEDIDO&#xa;FICTECU&#xa;FIPAISCU&#xa;CANALCU&#xa;FOLIOCU&#xa;SUCURSALCU&#xa;FINGCIOID&#xa;FICTEID&#xa;FINOTIENDA&#xa;FIDIGITOVER&#xa;FDFECHASURT&#xa;" style="shape=partialRectangle;connectable=0;fillColor=none;top=0;left=0;bottom=0;right=0;align=left;spacingLeft=6;overflow=hidden;" vertex="1" parent="ZbzUIR6lRue4rK1-tcVg-107">
          <mxGeometry x="30" width="180.66" height="185" as="geometry" />
        </mxCell>
        <mxCell id="ZbzUIR6lRue4rK1-tcVg-117" style="edgeStyle=orthogonalEdgeStyle;rounded=0;orthogonalLoop=1;jettySize=auto;html=1;entryX=1;entryY=0.5;entryDx=0;entryDy=0;startArrow=none;startFill=0;endArrow=none;endFill=0;" edge="1" parent="ZbzUIR6lRue4rK1-tcVg-135" source="ZbzUIR6lRue4rK1-tcVg-103">
          <mxGeometry relative="1" as="geometry">
            <Array as="points">
              <mxPoint x="286" y="112" />
              <mxPoint x="286" y="180" />
            </Array>
            <mxPoint x="266" y="180" as="targetPoint" />
          </mxGeometry>
        </mxCell>
        <mxCell id="ZbzUIR6lRue4rK1-tcVg-118" value="COMP.PEDIDOS_SURT_EMP" style="shape=table;startSize=30;container=1;collapsible=1;childLayout=tableLayout;fixedRows=1;rowLines=0;fontStyle=1;align=center;resizeLast=1;strokeColor=#d79b00;fillColor=#ffe6cc;" vertex="1" collapsed="1" parent="ZbzUIR6lRue4rK1-tcVg-135">
          <mxGeometry x="619" y="131" width="250" height="30" as="geometry">
            <mxRectangle x="3408" y="1503" width="210.66" height="159.5" as="alternateBounds" />
          </mxGeometry>
        </mxCell>
        <mxCell id="ZbzUIR6lRue4rK1-tcVg-119" value="" style="shape=partialRectangle;collapsible=0;dropTarget=0;pointerEvents=0;fillColor=none;top=0;left=0;bottom=1;right=0;points=[[0,0.5],[1,0.5]];portConstraint=eastwest;" vertex="1" parent="ZbzUIR6lRue4rK1-tcVg-118">
          <mxGeometry y="30" width="210.66" height="30" as="geometry" />
        </mxCell>
        <mxCell id="ZbzUIR6lRue4rK1-tcVg-120" value="PK" style="shape=partialRectangle;connectable=0;fillColor=none;top=0;left=0;bottom=0;right=0;fontStyle=1;overflow=hidden;" vertex="1" parent="ZbzUIR6lRue4rK1-tcVg-119">
          <mxGeometry width="30" height="30" as="geometry" />
        </mxCell>
        <mxCell id="ZbzUIR6lRue4rK1-tcVg-121" value="UniqueID" style="shape=partialRectangle;connectable=0;fillColor=none;top=0;left=0;bottom=0;right=0;align=left;spacingLeft=6;fontStyle=5;overflow=hidden;" vertex="1" parent="ZbzUIR6lRue4rK1-tcVg-119">
          <mxGeometry x="30" width="180.66" height="30" as="geometry" />
        </mxCell>
        <mxCell id="ZbzUIR6lRue4rK1-tcVg-122" value="" style="shape=partialRectangle;collapsible=0;dropTarget=0;pointerEvents=0;fillColor=none;top=0;left=0;bottom=0;right=0;points=[[0,0.5],[1,0.5]];portConstraint=eastwest;" vertex="1" parent="ZbzUIR6lRue4rK1-tcVg-118">
          <mxGeometry y="60" width="210.66" height="98" as="geometry" />
        </mxCell>
        <mxCell id="ZbzUIR6lRue4rK1-tcVg-123" value="" style="shape=partialRectangle;connectable=0;fillColor=none;top=0;left=0;bottom=0;right=0;editable=1;overflow=hidden;" vertex="1" parent="ZbzUIR6lRue4rK1-tcVg-122">
          <mxGeometry width="30" height="98" as="geometry" />
        </mxCell>
        <mxCell id="ZbzUIR6lRue4rK1-tcVg-124" value="FIPAISID&#xa;FICANAL&#xa;FISUCURSAL&#xa;FINOPEDIDO&#xa;FCEMPNUM&#xa;FITIPOOP" style="shape=partialRectangle;connectable=0;fillColor=none;top=0;left=0;bottom=0;right=0;align=left;spacingLeft=6;overflow=hidden;" vertex="1" parent="ZbzUIR6lRue4rK1-tcVg-122">
          <mxGeometry x="30" width="180.66" height="98" as="geometry" />
        </mxCell>
        <mxCell id="ZbzUIR6lRue4rK1-tcVg-125" style="edgeStyle=orthogonalEdgeStyle;rounded=0;orthogonalLoop=1;jettySize=auto;html=1;entryX=0;entryY=0.5;entryDx=0;entryDy=0;startArrow=none;startFill=0;endArrow=classic;endFill=1;" edge="1" parent="ZbzUIR6lRue4rK1-tcVg-135" source="ZbzUIR6lRue4rK1-tcVg-127" target="ZbzUIR6lRue4rK1-tcVg-118">
          <mxGeometry relative="1" as="geometry" />
        </mxCell>
        <mxCell id="ZbzUIR6lRue4rK1-tcVg-126" style="edgeStyle=orthogonalEdgeStyle;rounded=0;orthogonalLoop=1;jettySize=auto;html=1;startArrow=classic;startFill=1;endArrow=none;endFill=0;" edge="1" parent="ZbzUIR6lRue4rK1-tcVg-135" source="ZbzUIR6lRue4rK1-tcVg-127">
          <mxGeometry relative="1" as="geometry">
            <mxPoint x="287" y="146" as="targetPoint" />
          </mxGeometry>
        </mxCell>
        <mxCell id="ZbzUIR6lRue4rK1-tcVg-127" value="Se realiza la búsqueda de la información del empleado con tipo de operacion 108" style="text;html=1;strokeColor=none;fillColor=none;align=center;verticalAlign=middle;whiteSpace=wrap;rounded=0;" vertex="1" parent="ZbzUIR6lRue4rK1-tcVg-135">
          <mxGeometry x="374" y="120.5" width="163" height="51" as="geometry" />
        </mxCell>
        <mxCell id="ZbzUIR6lRue4rK1-tcVg-128" value="RCREDITO.MOVIMIENTO_PEDIDO" style="shape=table;startSize=30;container=1;collapsible=1;childLayout=tableLayout;fixedRows=1;rowLines=0;fontStyle=1;align=center;resizeLast=1;fillColor=#d5e8d4;strokeColor=#82b366;" vertex="1" collapsed="1" parent="ZbzUIR6lRue4rK1-tcVg-135">
          <mxGeometry x="-1" y="163" width="267" height="30" as="geometry">
            <mxRectangle x="862" y="252" width="190" height="253" as="alternateBounds" />
          </mxGeometry>
        </mxCell>
        <mxCell id="ZbzUIR6lRue4rK1-tcVg-129" value="" style="shape=partialRectangle;collapsible=0;dropTarget=0;pointerEvents=0;fillColor=none;top=0;left=0;bottom=1;right=0;points=[[0,0.5],[1,0.5]];portConstraint=eastwest;" vertex="1" parent="ZbzUIR6lRue4rK1-tcVg-128">
          <mxGeometry y="30" width="190" height="30" as="geometry" />
        </mxCell>
        <mxCell id="ZbzUIR6lRue4rK1-tcVg-130" value="PK" style="shape=partialRectangle;connectable=0;fillColor=none;top=0;left=0;bottom=0;right=0;fontStyle=1;overflow=hidden;" vertex="1" parent="ZbzUIR6lRue4rK1-tcVg-129">
          <mxGeometry width="30" height="30" as="geometry" />
        </mxCell>
        <mxCell id="ZbzUIR6lRue4rK1-tcVg-131" value="UniqueID" style="shape=partialRectangle;connectable=0;fillColor=none;top=0;left=0;bottom=0;right=0;align=left;spacingLeft=6;fontStyle=5;overflow=hidden;" vertex="1" parent="ZbzUIR6lRue4rK1-tcVg-129">
          <mxGeometry x="30" width="160" height="30" as="geometry" />
        </mxCell>
        <mxCell id="ZbzUIR6lRue4rK1-tcVg-132" value="" style="shape=partialRectangle;collapsible=0;dropTarget=0;pointerEvents=0;fillColor=none;top=0;left=0;bottom=0;right=0;points=[[0,0.5],[1,0.5]];portConstraint=eastwest;" vertex="1" parent="ZbzUIR6lRue4rK1-tcVg-128">
          <mxGeometry y="60" width="190" height="193" as="geometry" />
        </mxCell>
        <mxCell id="ZbzUIR6lRue4rK1-tcVg-133" value="" style="shape=partialRectangle;connectable=0;fillColor=none;top=0;left=0;bottom=0;right=0;editable=1;overflow=hidden;" vertex="1" parent="ZbzUIR6lRue4rK1-tcVg-132">
          <mxGeometry width="30" height="193" as="geometry" />
        </mxCell>
        <mxCell id="ZbzUIR6lRue4rK1-tcVg-134" value="FIPAISID&#xa;FICANAL&#xa;FISUCURSAL&#xa;FINOPEDIDO&#xa;FINOMOVTO&#xa;FINOTRANSAC&#xa;FITIPOOP&#xa;FDFECMOVTOPED&#xa;FIMOVPCARABO&#xa;FNMOVPIMP&#xa;FCUSERID&#xa;FCWS&#xa;FICONCEPMOV" style="shape=partialRectangle;connectable=0;fillColor=none;top=0;left=0;bottom=0;right=0;align=left;spacingLeft=6;overflow=hidden;" vertex="1" parent="ZbzUIR6lRue4rK1-tcVg-132">
          <mxGeometry x="30" width="160" height="193" as="geometry" />
        </mxCell>
        <mxCell id="ZbzUIR6lRue4rK1-tcVg-186" value="wkf_BUSCA_REASIGNACION_DE_CUENTAS" style="swimlane;startSize=23;" vertex="1" parent="1">
          <mxGeometry x="2762" y="1295" width="871" height="290" as="geometry">
            <mxRectangle x="845" y="-123" width="229" height="23" as="alternateBounds" />
          </mxGeometry>
        </mxCell>
        <mxCell id="ZbzUIR6lRue4rK1-tcVg-161" value="COMP.PEDIDOS_CREDITO_CA_SURTIDOS" style="shape=table;startSize=30;container=1;collapsible=1;childLayout=tableLayout;fixedRows=1;rowLines=0;fontStyle=1;align=center;resizeLast=1;strokeColor=#E1D5E7;fillColor=#E1D5E7;" vertex="1" collapsed="1" parent="ZbzUIR6lRue4rK1-tcVg-186">
          <mxGeometry x="-4" y="97" width="267" height="30" as="geometry">
            <mxRectangle x="2991" y="635" width="210.66" height="245.03309885660804" as="alternateBounds" />
          </mxGeometry>
        </mxCell>
        <mxCell id="ZbzUIR6lRue4rK1-tcVg-162" value="" style="shape=partialRectangle;collapsible=0;dropTarget=0;pointerEvents=0;fillColor=none;top=0;left=0;bottom=1;right=0;points=[[0,0.5],[1,0.5]];portConstraint=eastwest;" vertex="1" parent="ZbzUIR6lRue4rK1-tcVg-161">
          <mxGeometry y="30" width="210.66" height="30" as="geometry" />
        </mxCell>
        <mxCell id="ZbzUIR6lRue4rK1-tcVg-163" value="PK" style="shape=partialRectangle;connectable=0;fillColor=none;top=0;left=0;bottom=0;right=0;fontStyle=1;overflow=hidden;" vertex="1" parent="ZbzUIR6lRue4rK1-tcVg-162">
          <mxGeometry width="30" height="30" as="geometry" />
        </mxCell>
        <mxCell id="ZbzUIR6lRue4rK1-tcVg-164" value="UniqueID" style="shape=partialRectangle;connectable=0;fillColor=none;top=0;left=0;bottom=0;right=0;align=left;spacingLeft=6;fontStyle=5;overflow=hidden;" vertex="1" parent="ZbzUIR6lRue4rK1-tcVg-162">
          <mxGeometry x="30" width="180.66" height="30" as="geometry" />
        </mxCell>
        <mxCell id="ZbzUIR6lRue4rK1-tcVg-165" value="" style="shape=partialRectangle;collapsible=0;dropTarget=0;pointerEvents=0;fillColor=none;top=0;left=0;bottom=0;right=0;points=[[0,0.5],[1,0.5]];portConstraint=eastwest;" vertex="1" parent="ZbzUIR6lRue4rK1-tcVg-161">
          <mxGeometry y="60" width="210.66" height="185" as="geometry" />
        </mxCell>
        <mxCell id="ZbzUIR6lRue4rK1-tcVg-166" value="" style="shape=partialRectangle;connectable=0;fillColor=none;top=0;left=0;bottom=0;right=0;editable=1;overflow=hidden;" vertex="1" parent="ZbzUIR6lRue4rK1-tcVg-165">
          <mxGeometry width="30" height="185" as="geometry" />
        </mxCell>
        <mxCell id="ZbzUIR6lRue4rK1-tcVg-167" value="FIPAISID&#xa;FICANAL&#xa;FISUCURSAL&#xa;FINOPEDIDO&#xa;FICTECU&#xa;FIPAISCU&#xa;CANALCU&#xa;FOLIOCU&#xa;SUCURSALCU&#xa;FINGCIOID&#xa;FICTEID&#xa;FINOTIENDA&#xa;FIDIGITOVER&#xa;FDFECHASURT&#xa;" style="shape=partialRectangle;connectable=0;fillColor=none;top=0;left=0;bottom=0;right=0;align=left;spacingLeft=6;overflow=hidden;" vertex="1" parent="ZbzUIR6lRue4rK1-tcVg-165">
          <mxGeometry x="30" width="180.66" height="185" as="geometry" />
        </mxCell>
        <mxCell id="ZbzUIR6lRue4rK1-tcVg-168" style="edgeStyle=orthogonalEdgeStyle;rounded=0;orthogonalLoop=1;jettySize=auto;html=1;entryX=1;entryY=0.5;entryDx=0;entryDy=0;startArrow=none;startFill=0;endArrow=none;endFill=0;" edge="1" parent="ZbzUIR6lRue4rK1-tcVg-186" source="ZbzUIR6lRue4rK1-tcVg-161">
          <mxGeometry relative="1" as="geometry">
            <Array as="points">
              <mxPoint x="283" y="112" />
              <mxPoint x="283" y="180" />
            </Array>
            <mxPoint x="263" y="180" as="targetPoint" />
          </mxGeometry>
        </mxCell>
        <mxCell id="ZbzUIR6lRue4rK1-tcVg-169" value="COMP.REASIGNACION_DE_CUENTAS" style="shape=table;startSize=30;container=1;collapsible=1;childLayout=tableLayout;fixedRows=1;rowLines=0;fontStyle=1;align=center;resizeLast=1;strokeColor=#d79b00;fillColor=#ffe6cc;" vertex="1" collapsed="1" parent="ZbzUIR6lRue4rK1-tcVg-186">
          <mxGeometry x="616" y="131" width="250" height="30" as="geometry">
            <mxRectangle x="3394" y="1754" width="210.66" height="179" as="alternateBounds" />
          </mxGeometry>
        </mxCell>
        <mxCell id="ZbzUIR6lRue4rK1-tcVg-170" value="" style="shape=partialRectangle;collapsible=0;dropTarget=0;pointerEvents=0;fillColor=none;top=0;left=0;bottom=1;right=0;points=[[0,0.5],[1,0.5]];portConstraint=eastwest;" vertex="1" parent="ZbzUIR6lRue4rK1-tcVg-169">
          <mxGeometry y="30" width="210.66" height="30" as="geometry" />
        </mxCell>
        <mxCell id="ZbzUIR6lRue4rK1-tcVg-171" value="PK" style="shape=partialRectangle;connectable=0;fillColor=none;top=0;left=0;bottom=0;right=0;fontStyle=1;overflow=hidden;" vertex="1" parent="ZbzUIR6lRue4rK1-tcVg-170">
          <mxGeometry width="30" height="30" as="geometry" />
        </mxCell>
        <mxCell id="ZbzUIR6lRue4rK1-tcVg-172" value="UniqueID" style="shape=partialRectangle;connectable=0;fillColor=none;top=0;left=0;bottom=0;right=0;align=left;spacingLeft=6;fontStyle=5;overflow=hidden;" vertex="1" parent="ZbzUIR6lRue4rK1-tcVg-170">
          <mxGeometry x="30" width="180.66" height="30" as="geometry" />
        </mxCell>
        <mxCell id="ZbzUIR6lRue4rK1-tcVg-173" value="" style="shape=partialRectangle;collapsible=0;dropTarget=0;pointerEvents=0;fillColor=none;top=0;left=0;bottom=0;right=0;points=[[0,0.5],[1,0.5]];portConstraint=eastwest;" vertex="1" parent="ZbzUIR6lRue4rK1-tcVg-169">
          <mxGeometry y="60" width="210.66" height="118" as="geometry" />
        </mxCell>
        <mxCell id="ZbzUIR6lRue4rK1-tcVg-174" value="" style="shape=partialRectangle;connectable=0;fillColor=none;top=0;left=0;bottom=0;right=0;editable=1;overflow=hidden;" vertex="1" parent="ZbzUIR6lRue4rK1-tcVg-173">
          <mxGeometry width="30" height="118" as="geometry" />
        </mxCell>
        <mxCell id="ZbzUIR6lRue4rK1-tcVg-175" value="FIPAISDEST&#xa;FICANDEST&#xa;FISUCDEST&#xa;FINOPEDNVO&#xa;FIPAISORIG&#xa;FICANORIG&#xa;FISUCORIG&#xa;FINOPEDANT" style="shape=partialRectangle;connectable=0;fillColor=none;top=0;left=0;bottom=0;right=0;align=left;spacingLeft=6;overflow=hidden;" vertex="1" parent="ZbzUIR6lRue4rK1-tcVg-173">
          <mxGeometry x="30" width="180.66" height="118" as="geometry" />
        </mxCell>
        <mxCell id="ZbzUIR6lRue4rK1-tcVg-176" style="edgeStyle=orthogonalEdgeStyle;rounded=0;orthogonalLoop=1;jettySize=auto;html=1;entryX=0;entryY=0.5;entryDx=0;entryDy=0;startArrow=none;startFill=0;endArrow=classic;endFill=1;" edge="1" parent="ZbzUIR6lRue4rK1-tcVg-186" source="ZbzUIR6lRue4rK1-tcVg-178" target="ZbzUIR6lRue4rK1-tcVg-169">
          <mxGeometry relative="1" as="geometry" />
        </mxCell>
        <mxCell id="ZbzUIR6lRue4rK1-tcVg-177" style="edgeStyle=orthogonalEdgeStyle;rounded=0;orthogonalLoop=1;jettySize=auto;html=1;startArrow=classic;startFill=1;endArrow=none;endFill=0;" edge="1" parent="ZbzUIR6lRue4rK1-tcVg-186" source="ZbzUIR6lRue4rK1-tcVg-178">
          <mxGeometry relative="1" as="geometry">
            <mxPoint x="284" y="146" as="targetPoint" />
          </mxGeometry>
        </mxCell>
        <mxCell id="ZbzUIR6lRue4rK1-tcVg-178" value="Se realiza la búsqueda de la información de los pedidos reasignados por cambio de tienda" style="text;html=1;strokeColor=none;fillColor=none;align=center;verticalAlign=middle;whiteSpace=wrap;rounded=0;" vertex="1" parent="ZbzUIR6lRue4rK1-tcVg-186">
          <mxGeometry x="371" y="120.5" width="163" height="51" as="geometry" />
        </mxCell>
        <mxCell id="ZbzUIR6lRue4rK1-tcVg-179" value="RCREDITO.REASIGNACION_DE_CUENTAS" style="shape=table;startSize=30;container=1;collapsible=1;childLayout=tableLayout;fixedRows=1;rowLines=0;fontStyle=1;align=center;resizeLast=1;fillColor=#d5e8d4;strokeColor=#82b366;" vertex="1" collapsed="1" parent="ZbzUIR6lRue4rK1-tcVg-186">
          <mxGeometry x="-4" y="163" width="267" height="30" as="geometry">
            <mxRectangle x="2774" y="1786" width="190" height="444" as="alternateBounds" />
          </mxGeometry>
        </mxCell>
        <mxCell id="ZbzUIR6lRue4rK1-tcVg-180" value="" style="shape=partialRectangle;collapsible=0;dropTarget=0;pointerEvents=0;fillColor=none;top=0;left=0;bottom=1;right=0;points=[[0,0.5],[1,0.5]];portConstraint=eastwest;" vertex="1" parent="ZbzUIR6lRue4rK1-tcVg-179">
          <mxGeometry y="30" width="190" height="30" as="geometry" />
        </mxCell>
        <mxCell id="ZbzUIR6lRue4rK1-tcVg-181" value="PK" style="shape=partialRectangle;connectable=0;fillColor=none;top=0;left=0;bottom=0;right=0;fontStyle=1;overflow=hidden;" vertex="1" parent="ZbzUIR6lRue4rK1-tcVg-180">
          <mxGeometry width="30" height="30" as="geometry" />
        </mxCell>
        <mxCell id="ZbzUIR6lRue4rK1-tcVg-182" value="UniqueID" style="shape=partialRectangle;connectable=0;fillColor=none;top=0;left=0;bottom=0;right=0;align=left;spacingLeft=6;fontStyle=5;overflow=hidden;" vertex="1" parent="ZbzUIR6lRue4rK1-tcVg-180">
          <mxGeometry x="30" width="160" height="30" as="geometry" />
        </mxCell>
        <mxCell id="ZbzUIR6lRue4rK1-tcVg-183" value="" style="shape=partialRectangle;collapsible=0;dropTarget=0;pointerEvents=0;fillColor=none;top=0;left=0;bottom=0;right=0;points=[[0,0.5],[1,0.5]];portConstraint=eastwest;" vertex="1" parent="ZbzUIR6lRue4rK1-tcVg-179">
          <mxGeometry y="60" width="190" height="382" as="geometry" />
        </mxCell>
        <mxCell id="ZbzUIR6lRue4rK1-tcVg-184" value="" style="shape=partialRectangle;connectable=0;fillColor=none;top=0;left=0;bottom=0;right=0;editable=1;overflow=hidden;" vertex="1" parent="ZbzUIR6lRue4rK1-tcVg-183">
          <mxGeometry width="30" height="382" as="geometry" />
        </mxCell>
        <mxCell id="ZbzUIR6lRue4rK1-tcVg-185" value="FISUCORIG&#xa;FINOPEDANT&#xa;FISUCDEST&#xa;FINOPEDNVO&#xa;FNPEDTOTALC&#xa;FNPEDTOTALT&#xa;FNPEDSALDOC&#xa;FNPEDSALDOT&#xa;FNPEDIMPMORC&#xa;FNPEDIMPMORT&#xa;FIPERACTC&#xa;FIPERACTT&#xa;FINOPERCORRC&#xa;FINOPERCORRT&#xa;FNIMPPAGC&#xa;FNIMPPAGT&#xa;FICANORIG&#xa;FICANDEST&#xa;FIPAISORIG&#xa;FIFOLIOPARAMANT&#xa;FIFOLIOPARAMNVO&#xa;FIPAISDEST&#xa;FINGCIOID&#xa;FINOTIENDA&#xa;FICTEID&#xa;FIDIGITOVER" style="shape=partialRectangle;connectable=0;fillColor=none;top=0;left=0;bottom=0;right=0;align=left;spacingLeft=6;overflow=hidden;" vertex="1" parent="ZbzUIR6lRue4rK1-tcVg-183">
          <mxGeometry x="30" width="160" height="382" as="geometry" />
        </mxCell>
        <mxCell id="ZbzUIR6lRue4rK1-tcVg-212" value="sp_SURTIDOS_SEMANA_VENCIDA" style="swimlane;" vertex="1" parent="1">
          <mxGeometry x="3806" y="207" width="871" height="288" as="geometry">
            <mxRectangle x="845" y="-123" width="229" height="23" as="alternateBounds" />
          </mxGeometry>
        </mxCell>
        <mxCell id="ZbzUIR6lRue4rK1-tcVg-213" value="COMP.PEDIDOS_CREDITO_CA" style="shape=table;startSize=30;container=1;collapsible=1;childLayout=tableLayout;fixedRows=1;rowLines=0;fontStyle=1;align=center;resizeLast=1;fillColor=#99CCFF;strokeColor=#99CCFF;" vertex="1" collapsed="1" parent="ZbzUIR6lRue4rK1-tcVg-212">
          <mxGeometry x="31.5" y="138.75" width="226" height="30" as="geometry">
            <mxRectangle x="1374" y="228" width="188" height="1225.7565892537436" as="alternateBounds" />
          </mxGeometry>
        </mxCell>
        <mxCell id="ZbzUIR6lRue4rK1-tcVg-214" value="" style="shape=partialRectangle;collapsible=0;dropTarget=0;pointerEvents=0;fillColor=none;top=0;left=0;bottom=1;right=0;points=[[0,0.5],[1,0.5]];portConstraint=eastwest;" vertex="1" parent="ZbzUIR6lRue4rK1-tcVg-213">
          <mxGeometry y="30" width="188" height="30" as="geometry" />
        </mxCell>
        <mxCell id="ZbzUIR6lRue4rK1-tcVg-215" value="PK" style="shape=partialRectangle;connectable=0;fillColor=none;top=0;left=0;bottom=0;right=0;fontStyle=1;overflow=hidden;" vertex="1" parent="ZbzUIR6lRue4rK1-tcVg-214">
          <mxGeometry width="30" height="30" as="geometry" />
        </mxCell>
        <mxCell id="ZbzUIR6lRue4rK1-tcVg-216" value="UniqueID" style="shape=partialRectangle;connectable=0;fillColor=none;top=0;left=0;bottom=0;right=0;align=left;spacingLeft=6;fontStyle=5;overflow=hidden;" vertex="1" parent="ZbzUIR6lRue4rK1-tcVg-214">
          <mxGeometry x="30" width="158" height="30" as="geometry" />
        </mxCell>
        <mxCell id="ZbzUIR6lRue4rK1-tcVg-217" value="" style="shape=partialRectangle;collapsible=0;dropTarget=0;pointerEvents=0;fillColor=none;top=0;left=0;bottom=0;right=0;points=[[0,0.5],[1,0.5]];portConstraint=eastwest;" vertex="1" parent="ZbzUIR6lRue4rK1-tcVg-213">
          <mxGeometry y="60" width="188" height="1165" as="geometry" />
        </mxCell>
        <mxCell id="ZbzUIR6lRue4rK1-tcVg-218" value="" style="shape=partialRectangle;connectable=0;fillColor=none;top=0;left=0;bottom=0;right=0;editable=1;overflow=hidden;" vertex="1" parent="ZbzUIR6lRue4rK1-tcVg-217">
          <mxGeometry width="30" height="1165" as="geometry" />
        </mxCell>
        <mxCell id="ZbzUIR6lRue4rK1-tcVg-219" value="FIPAISID&#xa;FICANAL&#xa;FISUCURSAL&#xa;FINOPEDIDO&#xa;FINGCIOID&#xa;FINOTIENDA&#xa;FICTEID&#xa;FIDIGITOVER&#xa;FDFECHASURT&#xa;FDINIPER&#xa;FNIMPORTEABONO&#xa;FDULTPAGO&#xa;FNIMPORTEULTPAGO&#xa;FIPLAZO&#xa;FIPERIODO&#xa;FNENGANCHE&#xa;FNSALDO&#xa;FNMORATORIOS&#xa;FNSALDOATRASADO&#xa;FIPERVENCIDOS&#xa;FIPERINACTIVIDAD&#xa;FIPERATRASO&#xa;FIPERATRAACUM&#xa;FICLASIFCUENTA&#xa;FINOGESTIONES&#xa;FIGESTSINCOBRO&#xa;FDULTIMAVISITA&#xa;FIRESULUVISITA&#xa;FINOPAGOS&#xa;FDULTIMOABONO&#xa;FNULTIMOABONO&#xa;FNULTABONOMORA&#xa;FNBONIFICA&#xa;FNIMPPAGARBONIF&#xa;FIPEDSTATUS&#xa;FDFECULTACT&#xa;FIDESPID&#xa;FNSDOANTMORA&#xa;FINOVECESATR&#xa;FIRUTA&#xa;FDCSALDOCAPITAL&#xa;FDCINTXFINANCIAR&#xa;FDCSALDOORIGINAL&#xa;FDCINTTOTXATRASO&#xa;FIPAGOSCAPITAL&#xa;FIPAGOSINTERESES&#xa;FCOBSERVACION&#xa;FIDEPTOID&#xa;FIZONAID&#xa;FCEMPNUM&#xa;FDFECHACANC&#xa;FNCREDVARIOS&#xa;FISEMATRAS&#xa;FITIPODEPTO&#xa;FIUNIDADNEGOCIO&#xa;FNPRECIOD&#xa;FIIDZONACOBZA&#xa;FIIDORIGEN&#xa;FNIMPTOTVENTA&#xa;FIEMISION&#xa;FISERIE&#xa;FIPERACTUAL&#xa;FIPERCORRIDO&#xa;FISTATUSEMISION&#xa;FCFOLIOPARAM&#xa;FITIPOCLIENTE&#xa;FIDIASSERV&#xa;FIDIASGRACIA&#xa;FISTATUSREGIONAL&#xa;FCEMPNUMET&#xa;FNIMPPAGADO&#xa;FNIMPDEVENG&#xa;FNULTIMPMORA&#xa;FCSTATCARTERA&#xa;FCCLASCAR&#xa;FISALDOIDNCALVENC&#xa;FISOLICITUDID&#xa;FIPAISCU&#xa;FICANALCU&#xa;FISUCURSALCU&#xa;FIFOLIO&#xa;FNCOBROSEM&#xa;FNCOBROACUM&#xa;" style="shape=partialRectangle;connectable=0;fillColor=none;top=0;left=0;bottom=0;right=0;align=left;spacingLeft=6;overflow=hidden;" vertex="1" parent="ZbzUIR6lRue4rK1-tcVg-217">
          <mxGeometry x="30" width="158" height="1165" as="geometry" />
        </mxCell>
        <mxCell id="ZbzUIR6lRue4rK1-tcVg-220" value="Tabla de pedidos, con dos campos extra, cobro semanal y cobro acumulado." style="text;html=1;strokeColor=none;fillColor=none;align=center;verticalAlign=middle;whiteSpace=wrap;rounded=0;" vertex="1" parent="ZbzUIR6lRue4rK1-tcVg-212">
          <mxGeometry x="71" y="80.75" width="157" height="56" as="geometry" />
        </mxCell>
        <mxCell id="ZbzUIR6lRue4rK1-tcVg-221" value="COMP.PEDIDOS_CREDITO_CA_SURTIDOS" style="shape=table;startSize=30;container=1;collapsible=1;childLayout=tableLayout;fixedRows=1;rowLines=0;fontStyle=1;align=center;resizeLast=1;strokeColor=#E1D5E7;fillColor=#E1D5E7;" vertex="1" collapsed="1" parent="ZbzUIR6lRue4rK1-tcVg-212">
          <mxGeometry x="572.5" y="138.75" width="267" height="30" as="geometry">
            <mxRectangle x="572.5" y="138.75" width="210.66" height="245.03309885660804" as="alternateBounds" />
          </mxGeometry>
        </mxCell>
        <mxCell id="ZbzUIR6lRue4rK1-tcVg-222" value="" style="shape=partialRectangle;collapsible=0;dropTarget=0;pointerEvents=0;fillColor=none;top=0;left=0;bottom=1;right=0;points=[[0,0.5],[1,0.5]];portConstraint=eastwest;" vertex="1" parent="ZbzUIR6lRue4rK1-tcVg-221">
          <mxGeometry y="30" width="210.66" height="30" as="geometry" />
        </mxCell>
        <mxCell id="ZbzUIR6lRue4rK1-tcVg-223" value="PK" style="shape=partialRectangle;connectable=0;fillColor=none;top=0;left=0;bottom=0;right=0;fontStyle=1;overflow=hidden;" vertex="1" parent="ZbzUIR6lRue4rK1-tcVg-222">
          <mxGeometry width="30" height="30" as="geometry" />
        </mxCell>
        <mxCell id="ZbzUIR6lRue4rK1-tcVg-224" value="UniqueID" style="shape=partialRectangle;connectable=0;fillColor=none;top=0;left=0;bottom=0;right=0;align=left;spacingLeft=6;fontStyle=5;overflow=hidden;" vertex="1" parent="ZbzUIR6lRue4rK1-tcVg-222">
          <mxGeometry x="30" width="180.66" height="30" as="geometry" />
        </mxCell>
        <mxCell id="ZbzUIR6lRue4rK1-tcVg-225" value="" style="shape=partialRectangle;collapsible=0;dropTarget=0;pointerEvents=0;fillColor=none;top=0;left=0;bottom=0;right=0;points=[[0,0.5],[1,0.5]];portConstraint=eastwest;" vertex="1" parent="ZbzUIR6lRue4rK1-tcVg-221">
          <mxGeometry y="60" width="210.66" height="185" as="geometry" />
        </mxCell>
        <mxCell id="ZbzUIR6lRue4rK1-tcVg-226" value="" style="shape=partialRectangle;connectable=0;fillColor=none;top=0;left=0;bottom=0;right=0;editable=1;overflow=hidden;" vertex="1" parent="ZbzUIR6lRue4rK1-tcVg-225">
          <mxGeometry width="30" height="185" as="geometry" />
        </mxCell>
        <mxCell id="ZbzUIR6lRue4rK1-tcVg-227" value="FIPAISID&#xa;FICANAL&#xa;FISUCURSAL&#xa;FINOPEDIDO&#xa;FICTECU&#xa;FIPAISCU&#xa;CANALCU&#xa;FOLIOCU&#xa;SUCURSALCU&#xa;FINGCIOID&#xa;FICTEID&#xa;FINOTIENDA&#xa;FIDIGITOVER&#xa;FDFECHASURT&#xa;" style="shape=partialRectangle;connectable=0;fillColor=none;top=0;left=0;bottom=0;right=0;align=left;spacingLeft=6;overflow=hidden;" vertex="1" parent="ZbzUIR6lRue4rK1-tcVg-225">
          <mxGeometry x="30" width="180.66" height="185" as="geometry" />
        </mxCell>
        <mxCell id="ZbzUIR6lRue4rK1-tcVg-228" value="Mediante un Store Procedure se inserta solo la información de los pedidos surtidos a semana vencida." style="text;html=1;strokeColor=none;fillColor=none;align=center;verticalAlign=middle;whiteSpace=wrap;rounded=0;" vertex="1" parent="ZbzUIR6lRue4rK1-tcVg-212">
          <mxGeometry x="333.5" y="128.25" width="163" height="51" as="geometry" />
        </mxCell>
        <mxCell id="ZbzUIR6lRue4rK1-tcVg-229" style="edgeStyle=orthogonalEdgeStyle;rounded=0;orthogonalLoop=1;jettySize=auto;html=1;" edge="1" parent="ZbzUIR6lRue4rK1-tcVg-212" source="ZbzUIR6lRue4rK1-tcVg-228" target="ZbzUIR6lRue4rK1-tcVg-221">
          <mxGeometry relative="1" as="geometry" />
        </mxCell>
        <mxCell id="ZbzUIR6lRue4rK1-tcVg-230" style="edgeStyle=orthogonalEdgeStyle;rounded=0;orthogonalLoop=1;jettySize=auto;html=1;" edge="1" parent="ZbzUIR6lRue4rK1-tcVg-212" source="ZbzUIR6lRue4rK1-tcVg-213" target="ZbzUIR6lRue4rK1-tcVg-228">
          <mxGeometry relative="1" as="geometry">
            <mxPoint x="262.5" y="153.75" as="sourcePoint" />
            <mxPoint x="572.5" y="153.75" as="targetPoint" />
          </mxGeometry>
        </mxCell>
        <mxCell id="ZbzUIR6lRue4rK1-tcVg-231" value="Tabla con las primary key de pedidos a semana vencida " style="text;html=1;strokeColor=none;fillColor=none;align=center;verticalAlign=middle;whiteSpace=wrap;rounded=0;" vertex="1" parent="ZbzUIR6lRue4rK1-tcVg-212">
          <mxGeometry x="627.5" y="84.75" width="157" height="56" as="geometry" />
        </mxCell>
      </root>
    </mxGraphModel>
  </diagram>
</mxfile>
